<svg id="Layer_1" enable-background="new 0 0 170 170" viewBox="0 0 170 170" xmlns="http://www.w3.org/2000/svg"><g id="_x34_0"><g><g><path d="m69.1842499 143.0518036 57.1420975-11.5379028c.4978027-.1004944.5841064-.7752991.1276016-.9978027l-5.8820953-2.8675003-53.5093002 11.0546951c.3355102 1.8003997.9691009 3.3194122 2.1216964 4.3485107z" fill="#e22626"/></g><g><path d="m123.7826538 129.6656952-55.3299026 11.4576111c-4.8356628-4.2255707-4.0915604-8.7034912-1.5981979-14.7103043l55.2285995-9.8708038c1.7331314 4.4695892 2.2400436 8.8969269 1.699501 13.123497z" fill="#ebf2ff"/></g><g><path d="m123.9852524 126.7843018c-.0224991.9454956-.078804 1.9133911-.2025986 2.8813934l-55.3299026 11.4576111c-3.6578979-3.1964111-4.2881012-6.5054016-2.8136902-11.3789063l.0674896.0337982c.1350021 4.1981049 4.1081009 7.4734039 8.2274017 8.2723999 4.1306992.7991943 8.3625031-.2700958 12.4256973-1.3504944 12.5380021-3.2978057 25.0762025-6.6067962 37.6256028-9.9158019z" fill="#dbe6fa"/></g><g><path d="m82.6643829 127.5418091 14.9125977-2.4541016c.3418427-.0418091.3958893.4422302.0810547.4941406l-14.9125977 2.4541016c-.3323822.0474854-.4029922-.4410629-.0810547-.4941406z" fill="#cbdbf4"/></g><g><path d="m86.7654572 130.9812622 24.4858398-5.1386719c.3327255-.0600586.4196548.4238358.1025391.4902344l-24.4858398 5.1386719c-.3394776.058197-.4148179-.4248505-.1025391-.4902344z" fill="#cbdbf4"/></g><g><path d="m104.3943634 131.102356 11.9667969-2.5166016c.3315887-.0587311.4203033.421402.1025391.4902344l-11.9667969 2.5166016c-.3349457.0574188-.4182587-.4218446-.1025391-.4902344z" fill="#cbdbf4"/></g><g><path d="m69.1843491 143.0478973c-59.2679672-28.2022934-56.7487488-26.3769836-57.2431946-27.5635986-2.0394726-4.7593155-2.539876-9.6592789-.3488998-14.3501968l55.2622986 25.2789001c-1.1301881 5.6515274.182434 11.3019333 2.3297958 16.6348953z" fill="#e22626"/></g><g><path d="m69.1843491 143.0478973c-59.2679672-28.2022934-56.7487488-26.3769836-57.2431946-27.5635986-.3713999-.8666992-.6865997-1.7220001-.9342003-2.5774002 12.5945005 4.9522018 25.1889 9.9157028 37.7719994 14.8679047 5.8142471 2.2878189 12.0493469 4.5554733 17.7042007 1.4968948-.3038025 4.8171997 1.0017014 9.5554962 2.7011948 13.7761993z" fill="#d30909"/></g><g><path d="m123.4562531 116.2947006-1.3731003.2474976c-36.8363647 6.5802841-40.738678 7.2795258-55.2285995 9.8708038l-55.2622986-25.2789001c5.1087332-.7949905-18.5118771 3.0003204 50.0849991-8.1148987l61.8689957 22.2511978c.5065001.1800995.450302.9228973-.0899964 1.0242996z" fill="#ff6161"/></g><g><path d="m87.9803543 119.2322006c-.844101 1.305603-1.7220993 2.5998993-2.6225052 3.8717957l-10.7034988 1.9133072c-14.5414963-11.8516007-31.4466973-20.7768021-49.4434967-26.0892029l32.6733971-5.2899017c8.2500038 2.7125015 16.3762016 5.7287979 24.3110008 9.2517014 1.8570023.8104019 3.7141037 1.677002 5.2899017 2.9375 1.5643997 1.2717972 2.858696 2.9938965 3.2075958 4.9860992.5291062 2.971199-1.0804977 5.8750991-2.7123947 8.4187011z" fill="#f04444"/></g></g><g><g><path d="m85.2557526 123.1852036 57.0979919-11.529007c.5121002-.1033936.6007996-.797493.1313171-1.0263977l-5.8417053-2.8478012-53.509201 11.0547028c.3353958 1.8003997.9689941 3.3193969 2.1215973 4.3485031z" fill="#20b267"/></g><g><path d="m140.0124512 108.0896988c-.0337982.5626984-.0901031 1.1368027-.157608 1.7108002l-55.3297806 11.4576035c-4.3445129-3.8041992-2.8476105-10.433403-.1238098-17.0851059l.168808-.4051971 53.5627823-7.2369995c1.4294128 3.6803969 2.1047057 7.5408019 1.8796081 11.5588988z" fill="#ebf2ff"/></g><g><path d="m140.0124512 108.0896988c-.0337982.5626984-.0901031 1.1368027-.157608 1.7108002l-55.3297806 11.4576035c-4.3445129-3.8041992-2.8476105-10.433403-.1238098-17.0851059.1011963 3.770401 2.5548096 7.2482071 5.784996 9.206604 6.9336014 4.1835938 15.3115311 2.0152817 22.6002045.2475967 9.0040969-2.1834946 18.0868988-4.0292969 27.2259979-5.5374985z" fill="#dbe6fa"/></g><g><path d="m95.1223907 107.9343872c-.0886765-.4833984-1.3096771.1055984 31.7338867-6.1015625.3265457-.0585251.4154892.4314575.0908203.4921875-33.1738586 5.9968185-31.7353057 6.0913544-31.824707 5.609375z" fill="#cbdbf4"/></g><g><path d="m100.8406525 111.008606 24.1489258-4.7216797c.3263931-.0602188.4187622.4274826.0957031.4902344l-24.1489258 4.7216797c-.3285065.0597228-.4176178-.4277039-.0957031-.4902344z" fill="#cbdbf4"/></g><g><path d="m114.3543243 111.6433716 6.3549805-1.2705078c.3206635-.0638885.4240189.4244919.0976563.4902344l-6.3549805 1.2705078c-.3276672.0595779-.4194031-.4254227-.0976563-.4902344z" fill="#cbdbf4"/></g><g><path d="m85.2565536 123.1828003c-60.1119861-27.4358673-57.3294754-25.631546-57.7159004-26.6295013-.6977997-1.677002-1.0918007-3.4665985-1.2493-5.2787018-.3264008-3.691597.3827095-7.4732971 1.8120995-10.5459976l56.4666061 23.0391998c-.0338058.2025986-.0788116.393898-.1125107.6077042-1.0579967 5.7738952-1.1705989 13.9224929.7990055 18.8072967z" fill="#20b267"/></g><g><path d="m85.2565536 123.1828003c-60.1119861-27.4358673-57.3294754-25.631546-57.7159004-26.6295013-.6977997-1.677002-1.0918007-3.4665985-1.2493-5.2787018 9.7807102 4.8848038 19.5388012 9.7807007 29.3081989 14.6767044 5.1772995 2.5886002 10.6472969 5.2560959 16.4211006 4.9634018 4.8284073-.2476044 9.4430008-2.7686996 12.4368973-6.5391998-1.0579986 5.7738952-1.1706008 13.9224929.7990036 18.8072967z" fill="#129b50"/></g><g><path d="m139.2696533 96.3731995c-58.1217651 7.85186-54.5511856 7.3745346-54.6995926 7.3945999l-56.466608-23.0391999c-.3583088.0538788 12.5232105-1.9116745 49.6459961-7.5746002l61.6327057 22.1612015c.5401935.1912994.4613971.9792023-.1125012 1.0579987z" fill="#3be094"/></g><g><path d="m107.0914536 100.7288971-18.9761047 2.5549011c-13.035576-12.621315-30.0028878-18.9939346-47.0348969-24.5360946l26.5168991-4.0405045c10.7950439 3.2481003 21.0254059 8.227066 30.9290009 13.6185989 3.1063995 1.6883011 6.3927994 3.6241989 7.8673019 6.8431015.7990951 1.7444992.9678955 3.657898.6977997 5.5599976z" fill="#2dc97d"/></g></g><g><g><path d="m101.625061 102.1489029 57.2200012-9.8203049c.2498932-.0429001.3006897-.379097.0725861-.4805984l-6.7550049-3.0056992-52.9215774 9.3133011c.4432831 1.6455994 1.1683883 3.0391006 2.383995 3.9933014z" fill="#2b5bde"/></g><g><path d="m155.4994507 90.7343979-54.7220993 9.6455994c-4.6708984-3.6016006-3.4216003-9.7919006-.9905014-15.9371948 73.300415-8.0392685 47.4435272-5.2033997 53.1576996-5.830101 1.9079742 3.8863677 2.8468933 7.9700011 2.5549011 12.1216964z" fill="#ebf2ff"/></g><g><path d="m155.4994507 90.7343979-54.7220993 9.6455994c-4.6708984-3.6016006-3.4216003-9.7919006-.9905014-15.9371948l.1351013-.0112c1.0691986 5.2222977 6.1453018 8.9702988 11.4013977 10.1069946 5.3911057 1.1481018 10.9849014.1238022 16.3986053-.9003983 9.2628937-1.7557983 18.5370026-3.5227966 27.7998962-5.2786026.0451051.7766038.0337983 1.5757065-.0223998 2.3748017z" fill="#dbe6fa"/></g><g><path d="m127.1624298 91.3015747 7.8681641-1.3310547c.3161011-.064415.416626.4371796.0830078.4921875l-7.8681641 1.3310547c-.3139953.0672836-.4176407-.4370193-.0830078-.4921875z" fill="#cbdbf4"/></g><g><path d="m125.5159531 92.5465012c.1124954 1.9020996-.1238022 3.8153992-.6865997 5.6388016-2.249733-4.4696121-4.4699707-7.0074844-6.6517029-9.4993057l3.7479019-.8215942 5.4023972-.7316055c1.2271042 3.0085068 2.6874924 5.8513947 4.3895035 8.6439056-2.0709077-1.0805055-4.1418-2.1497041-6.2015-3.2302018z" fill="#ff6161"/></g><g><path d="m125.5159531 92.5465012c.1124954 1.9020996-.1238022 3.8153992-.6865997 5.6388016-1.6882019-3.3540039-3.860405-6.4717026-6.4041061-9.2292023l.1238174-.0224991c3.2940445 2.4562988 7.1528473 4.2368393 11.1200027 3.2302017.6414795 1.226799 1.3280792 2.4310989 2.0483856 3.6128998-2.0709076-1.0805054-4.1417999-2.149704-6.2014999-3.2302017z" fill="#f04444"/></g><g><path d="m101.6214523 102.1471024-58.3123893-24.2658997c-.5178108-.2139053-.9679985-.5966034-1.2156105-1.1031036-2.1839142-4.4956512-2.1183205-9.9120102-.2251015-14.1362991l57.918499 21.8010024c-.7752228 5.4238053-.5427552 13.0091248 1.8346023 17.7043z" fill="#2b5bde"/></g><g><path d="m101.6214523 102.1471024-58.3123893-24.2658997c-.5178108-.2139053-.9679985-.5966034-1.2156105-1.1031036-.3826981-.787796-.6977997-1.5981979-.9454994-2.4309998 8.8014984 5.6162033 19.2011986 8.1372986 28.9706001 11.8965988 5.2222977 2.0033035 10.4672012 4.4232025 16.0608978 4.4344025 4.9860001.0224991 9.9157028-2.0484009 13.5061035-5.5037003-.6864929 5.2335968-.3038025 12.5494004 1.9358978 16.9727021z" fill="#1940ce"/></g><g><path d="m115.6121368 88.4607544c28.6496429-3.7606659 27.5775757-3.9762344 27.6416016-3.4882813.0661011.4870377 1.0690765-.0097656-27.5751953 3.984375-.3411636.0296631-.3837433-.4530258-.0664063-.4960937z" fill="#cbdbf4"/></g><g><path d="m155.1640625 78.3647003c-9.9402618 1.0913696-51.8276062 5.6902847-55.3799973 6.0800018l-57.920002-21.8000031c64.2348938-8.0847816 45.8457832-5.7702751 49.2599983-6.2000008 78.5475998 26.2764931 61.6406326 20.6206169 64.090004 21.4399986.2599946.080002.2200013.4600069-.050003.4800035z" fill="#4f91ff"/></g><g><path d="m155.1640625 78.3647003-7.9799957.8799973c-15.927597-10.7088852-30.6743774-5.5922241-45.1600037-4.1499939-13.0500031 1.2999954-26.3700027-.2700043-38.7600021-4.5700073l-4.1522102-6.6597977c2.2400017-.9300003-3.1277885-2.4001999-.8677864-3.2801971l32.8799973-4.1400032c78.5475998 26.2764931 61.6406326 20.6206169 64.090004 21.4399986.2599944.0800018.2200011.4600067-.0500032.4800033z" fill="#3d76ef"/></g></g><g><path d="m123.2021484 41.4244003v24.8398972c0 4.2882004-15.3068008 6.5112991-34.1815948 6.5112991-18.8747025 0-34.1816025-2.2230988-34.1816025-6.5112991v-23.1965981c22.7915039-4.074398 45.5830002-5.7175979 68.3631973-1.6432991z" fill="#4f575f"/></g><g><path d="m123.2021484 41.4244003v11.8516007c-22.1337204-7.9138184-45.800705-4.9086304-68.3631973 2.3185005v-12.5268021c22.7915039-4.074398 45.5830002-5.7175979 68.3631973-1.6432991z" fill="#3d4449"/></g><g><path d="m149.7046509 39.9546013-.1439972 2.9007988c-32.8085022 2.1609001-66.2350998 3.2061005-99.1112061 3.1273003-6.8429985-4.6258011-12.1779976-9.7694016-16.4772987-15.9034004l.4839096-3.1289005 4.6370888 2.892601c91.664032 1.5073967 79.6710358 1.310173 80.7550049 1.3279991 4.8633194 1.8607464-11.9574814-4.5750313 22.0037003 8.4188023z" fill="#181e1e"/></g><g><path d="m34.4514542 26.9482002c4.3037987 6.1393013 9.8733978 11.519001 16.7088966 16.1393013 32.8815041.0803986 65.7295074-.9690018 98.5442963-3.1329002l-29.1455917-11.6772022z" fill="#2a3134"/></g><g><g><path d="m143.8175507 71.819397c-.4017944-2.6378937-2.5845947-4.9713974-5.190094-5.5483932-1.8725739-.414299-3.9865723-.0836868-6.0600128-.9167023-2.5977936-1.0409012-4.4701996-3.722702-5.0076904-7.1729012-.7996902-5.1321259 1.4236908-11.139534-1.4415054-15.1525993-1.7728958-2.4829025-5.1296005-3.4500999-8.136795-4.1623993-9.2276993-2.1828003-18.7136993-3.4743004-28.1937027-3.8381004-.6210022-.0231018-1.1052017-.5463028-1.0810013-1.1673012.0236053-.6209984.5320053-1.1166992 1.1678009-1.081501 9.6250992.3693008 19.2562027 1.6805 28.6250992 3.8974991 3.6557007.863903 7.3307037 2.0740013 9.4509048 5.0439034 3.4862442 4.8847466 1.0646744 11.189579 1.8339005 16.1131973.3192902 2.052002 1.4382019 4.5559006 3.6210022 5.4319 1.5103607.6048431 3.8110657.3880692 5.7083893.8067017 3.5348053.7826004 6.3842163 3.8293991 6.9293976 7.4080963.0934143.6144028-.328598 1.1882019-.9435883 1.281601-.6114503.0942381-1.1878511-.3265611-1.2821046-.9430009z" fill="#ebf2ff"/></g></g><g><path d="m158.5205536 89.8774033c-.2625427-.2624664-.6701965-.844101-1.1141968-.844101-.4840088-.0676041-.9792023.3264008-1.1706085.7990952-.2025909.5177994-.1575012 1.0918045-.0899963 1.6433029-.3713989-.2477036-.7429047-.5177994-1.1818085-.5740967-.4129028-.0620041-.9575348.1605148-1.0691986.5852966-.1125946.4502029.1800079 1.0691986-.2138977 1.3169022-.3926239.2398376-1.0591583-.2798157-1.508194.8102951-.1238098.3152008-.1912994.6977997-.2138062 1.0354996-.3713989-.3939972-.7540894-.7990952-1.2605896-.9904938-.3939056-.1575012-.9004059-.1350021-1.2380066.1012955-.5158844.3223572-.4242554 1.196373-.9678955 1.3731995-.4390106.1350021-.821701-.3488998-1.0130005-.7653961-1.9470978-4.209404-1.9246979-9.1616058-4.074295-13.2696991-.9004059-1.7108002-2.2623138-3.3090057-2.6338043-5.2561035-.8067474-4.0598679 3.1373749-8.0918808 7.1132965-6.3703995 1.7445068.7427979 2.3972931 2.7350006 3.3202057 4.2319031 4.5170135 7.3175354 5.0711212 9.3352737 8.3737946 15.1717987.7398681 1.2578658-.2751923 1.7845-1.0579987 1.0017013z" fill="#ffca6c"/></g><g><path d="m92.3632507 33.5345993c0 2.1856117-5.9346924 3.4221611-9.8031006 1.9920998-4.3704453-1.5552216-1.6711578-4.603199 3.8266983-4.603199 1.1143036 0 2.1610031.1350002 3.0501022.3712997 1.7557984.4503002 2.9263001 1.2831001 2.9263001 2.2397995z" fill="#ff6161"/></g><g><path d="m152.1726532 93.6140976c-.1238098.3152008-.1912994.6977997-.2138062 1.0354996-.3713989-.3939972-.7540894-.7990952-1.2605896-.9904938-.3939056-.1575012-.9004059-.1350021-1.2380066.1012955.3038177-3.0050964-.6190033-7.1807022-1.2380981-9.9944992 1.147995 2.8701019 2.6900025 6.5055008 3.9505005 9.8481979z" fill="#ffb63c"/></g><g><path d="m157.4063568 89.0333023c-.4840088-.0676041-.9792023.3264008-1.1706085.7990952-.2025909.5177994-.1575012 1.0918045-.0899963 1.6433029-.5741577-.3829193-1.196579-.8108597-1.8459015-.4503021.0225983-2.6223984-.4389038-5.2560959-1.3617859-7.7097015.5851898 1.677002 1.7445831 3.0951996 3.0050812 4.3445053.472702.4726943.9679107.9228973 1.463211 1.3731002z" fill="#ffb63c"/></g><g><path d="m92.3632507 33.5345993c0 2.1856117-5.9346924 3.4221611-9.8031006 1.9920998 1.7557983.1126022 3.5341034-.2250977 5.0873032-1.0354004.6640015-.3488998 1.3169022-.799099 1.677002-1.4519005.303894-.5402985.3713989-1.215498.1124954-1.7445984 1.7557983.4503002 2.9263 1.2831001 2.9263 2.2397995z" fill="#f04444"/></g><g opacity=".4"><g><path d="m97.2096481 68.3872986c2.8619308-.253952 2.8887024-4.7563286 0-4.5-4.8444595.4298782-9.6806564.8210297-14.4563599-.3347282-2.8136444-.6809235-4.014183 3.657299-1.1962738 4.3392601 1.1734849.1089706 3.8803635 1.5400924 15.6526337.4954681z" fill="#fff"/></g></g><g opacity=".4"><g><path d="m108.1723938 67.1538315c1.0836334-.4473953 1.977562-1.5129547 1.5714874-2.7677689-.337677-1.0434418-1.6028366-2.0524445-2.7677689-1.5714912-.9750671.4025688-1.9781647.6782799-3.0221024.8307991-1.1686249.170742-1.9135742 1.7106934-1.5714874 2.7677689.4134674 1.2776566 1.5153122 1.7544785 2.7677689 1.5714874 1.025116-.1497727 2.0296174-.4210434 3.0221024-.8307953z" fill="#fff"/></g></g><g opacity=".4"><g><path d="m49.1199226 73.505928c2.0118027.7751694 4.1187401 1.1563416 6.123291 1.9906006 1.1224174.4671326 2.4745598-.5043945 2.767765-1.5714874.3559036-1.2952652-.4448357-2.2988815-1.5714874-2.7677689-2.0045509-.834259-4.1114883-1.2154312-6.123291-1.9906006-1.1341934-.4370117-2.4685135.482399-2.767765 1.5714874-.3489838 1.2700883.4331665 2.3291627 1.5714874 2.7677689z" fill="#fff"/></g></g><g opacity=".4"><g><path d="m63.1710625 78.2444c1.1739311.1299667 2.3002739-1.127655 2.2500038-2.25-.0595779-1.3300934-.9923553-2.1107635-2.2500038-2.25-.3053055-.0337982-.610611-.0676193-.9159088-.1015015-1.1739044-.1302719-2.3002625 1.1278763-2.25 2.25.0595856 1.3303528.9923782 2.1104355 2.25 2.25.3052978.0338822.6106033.0677033.9159088.1015015z" fill="#fff"/></g></g><g opacity=".4"><g><path d="m30.0159931 107.114418c.1636333.046402.3272686.0927963.4909.1391983.7544174.2139435 1.6662216-.2619553 1.8451767-1.0476532.1817245-.7978363-.2396698-1.6160507-1.047657-1.8451843-.1636333-.046402-.3272667-.0927963-.4909-.1391983-.7544193-.2139282-1.6662197.2619553-1.8451786 1.0476608-.1817188.7978287.2396698 1.6160584 1.0476589 1.8451767z" fill="#fff"/></g></g><g opacity=".4"><g><path d="m34.3800926 109.0713196c2.2686424.7810364 4.5115128 1.627182 6.7308006 2.5391006 1.7843781.7332077 2.5616875-2.1679306.7975197-2.8928375-2.2192726-.911911-4.4621429-1.7580566-6.7308006-2.5391006-1.8293686-.6298066-2.6151581 2.2670669-.7975197 2.8928375z" fill="#fff"/></g></g></g></svg>