<?xml version="1.0" encoding="UTF-8"?>
<!-- Generator: Adobe Illustrator 25.2.3, SVG Export Plug-In . SVG Version: 6.00 Build 0)  -->
<svg xmlns="http://www.w3.org/2000/svg" xmlns:xlink="http://www.w3.org/1999/xlink" version="1.1" id="Capa_1" x="0px" y="0px" viewBox="0 0 512 512" style="enable-background:new 0 0 512 512;" xml:space="preserve" width="512" height="512">
<g>
	<g>
		<g>
			<g>
				<path style="fill:#6280FF;" d="M103.663,241.478l105.538,38.712c10.492,3.852,22.241,2.191,31.254-4.417l89.206-65.36      l1.47-1.084c5.044-3.702,6.436-10.625,3.182-15.963l-47.957-78.754l-165.92,23.45l-11.303,41.464l-12.925,47.492      C94.561,233.049,97.792,239.319,103.663,241.478z"/>
				<path style="fill:#322BBF;" d="M207.583,168.836c0.885,17.436,2.948,34.705,5.299,51.933      c2.469,17.212,5.234,34.382,9.187,51.383c0.204,0.879,1.214,1.417,2.254,1.202c0.946-0.195,1.591-0.945,1.548-1.74      c-0.913-17.431-3.015-34.695-5.413-51.917c-2.515-17.205-5.318-34.37-9.3-51.368c-0.194-0.826-1.143-1.331-2.122-1.128      C208.15,167.387,207.544,168.091,207.583,168.836z"/>
				<g style="opacity:0.25;">
					<path style="fill:#000E3F;" d="M103.663,241.478l105.538,38.712c10.492,3.852,22.241,2.191,31.254-4.417l89.206-65.36       c-7.535-9.011-20.306-14.216-32.406-14.129c-17.195,0.137-33.183,8.272-48.319,16.416       c-15.108,8.165-30.782,16.694-47.921,17.777c-19.467,1.205-39.279-8.236-50.619-24.106       c-4.595-6.438-7.969-13.898-13.803-19.258c-7.272-6.6-17.622-8.9-27.461-7.587l-12.925,47.492       C94.561,233.049,97.792,239.319,103.663,241.478z"/>
				</g>
				<g>
					<g>
						<path style="fill:#FC09B2;" d="M301.607,185.952c3.727-3.226,3.552-7.075,0.839-9.036        c-7.971-5.766-24.877,3.032-19.173,10.324C286.047,190.785,295.665,191.095,301.607,185.952z"/>
					</g>
					<g>
						<path style="fill:#FC09B2;" d="M235.868,205.859c-4.891-0.616-6.88-3.915-5.712-7.053c3.434-9.219,22.38-11.278,21.679-2.047        C251.495,201.248,243.665,206.842,235.868,205.859z"/>
					</g>
				</g>
			</g>
			<g>
				<path style="fill:#000E3F;" d="M220.729,284.255c-4.108,0-8.242-0.716-12.222-2.177l-105.538-38.712      c-6.895-2.536-10.637-9.791-8.7-16.877l24.576-90.234l1.311-0.184l167.23-23.635l0.687,1.131l47.958,78.754      c3.818,6.267,2.222,14.278-3.71,18.63l-1.466,1.082l-89.209,65.365C235.476,281.918,228.145,284.255,220.729,284.255z       M104.356,239.59l105.538,38.712c9.892,3.634,20.874,2.081,29.373-4.153l90.67-66.439c4.24-3.113,5.383-8.828,2.66-13.299      l-47.271-77.622l-163.297,23.079L98.15,227.545C96.768,232.602,99.437,237.779,104.356,239.59L104.356,239.59z"/>
				<g>
					<path style="fill:#000E3F;" d="M263.686,190.669c-6.462,0-11.495-5.362-13.164-11.05c-0.312-1.064,0.298-2.182,1.365-2.496       c1.075-0.305,2.182,0.301,2.496,1.365c1.365,4.649,5.65,9.039,10.873,8.002c2.676-0.527,4.173-2.251,4.96-3.602       c1.522-2.617,1.836-6.305,0.804-9.396c-0.352-1.053,0.218-2.193,1.271-2.545c1.053-0.348,2.193,0.218,2.545,1.271       c1.403,4.204,0.965,9.066-1.143,12.693c-1.726,2.968-4.375,4.878-7.658,5.526C265.234,190.593,264.449,190.669,263.686,190.669       z"/>
				</g>
				<path style="fill:#000E3F;" d="M294.254,164.396c-0.607-3.464-5.261-5.977-8.841-4.77c-3.64,1.228-5.969,4.895-4.76,8.989      c0.984,3.336,4.988,5.998,9.144,4.598C293.186,172.071,295.643,168.004,294.254,164.396z"/>
				<path style="fill:#000E3F;" d="M238.765,188.621c3.852-0.857,5.975-5.292,4.973-8.664c-1.184-3.987-5.198-6.099-8.963-4.97      c-3.658,1.096-5.87,5.065-4.839,8.782C230.999,187.602,235.663,189.892,238.765,188.621z"/>
			</g>
		</g>
		<g>
			<g>
				<g>
					<path style="fill:#6280FF;" d="M4.473,137.545l197.199,16.429c3.753,0.294,7.517-0.238,11.042-1.56l154.183-58.72       l30.738-11.715c2.69-1.024,2.133-4.966-0.732-5.179L199.705,60.37c-3.757-0.319-7.521,0.213-11.042,1.561L95.027,97.585       L3.741,132.366C1.074,133.362,1.631,137.303,4.473,137.545z"/>
					<g style="opacity:0.25;">
						<path style="fill:#000E3F;" d="M4.473,137.545l197.199,16.429c3.753,0.294,7.517-0.238,11.042-1.56l154.183-58.72        c-25.856-2.247-53.217,3.089-78.647,9.878c-39.314,10.479-79.816,24.037-119.77,16.489        c-23.327-4.408-44.778-15.782-67.897-21.277c-1.839-0.436-3.701-0.843-5.556-1.199L3.741,132.366        C1.074,133.362,1.631,137.303,4.473,137.545z"/>
					</g>
					<path style="fill:#322BBF;" d="M201.141,110.342c-10.09,1.425-19.123-1.724-21.973-7.217c-0.46-0.827-0.759-1.724-0.896-2.666       c-0.07-0.414-0.092-0.828-0.092-1.241c0.092-6.642,8.389-13.009,19.33-14.572c11.63-1.632,21.858,2.781,22.869,9.86       C221.39,101.608,212.771,108.687,201.141,110.342z"/>
					<path style="opacity:0.5;fill:#FFFFFF;" d="M225.363,78.28c9.406,1.658,18.845,2.865,28.296,3.912       c9.449,1.077,18.918,1.886,28.39,2.643c9.479,0.672,18.962,1.287,28.465,1.635c9.5,0.377,19.013,0.592,28.559,0.352       c1.243-0.031,2.225-1.064,2.194-2.307c-0.027-1.091-0.828-1.982-1.864-2.161c-9.407-1.641-18.848-2.828-28.301-3.853       c-9.45-1.053-18.92-1.84-28.395-2.57c-9.481-0.644-18.966-1.236-28.47-1.562c-9.503-0.354-19.016-0.548-28.564-0.292       c-1.169,0.031-2.092,1.004-2.06,2.173C223.642,77.275,224.392,78.109,225.363,78.28z"/>
				</g>
				<g>
					<path style="fill:#000E3F;" d="M203.713,156.067c-0.73,0-1.461-0.029-2.197-0.088L4.302,139.549       c-2.24-0.191-3.95-1.82-4.256-4.051c-0.303-2.22,0.9-4.236,2.992-5.017l184.909-70.428c3.829-1.47,7.847-2.029,11.928-1.686       L397.07,74.795c2.225,0.166,3.946,1.769,4.269,3.987c0.327,2.231-0.873,4.271-2.988,5.077L213.43,154.291       C210.287,155.472,207.03,156.067,203.713,156.067z M4.639,135.54l197.2,16.43c3.477,0.272,6.898-0.211,10.168-1.441       L396.92,80.101c0.429-0.164,0.476-0.491,0.44-0.738c-0.049-0.343-0.254-0.532-0.606-0.556L199.538,62.376       c-3.481-0.296-6.895,0.186-10.154,1.434L4.457,134.245c-0.334,0.126-0.471,0.361-0.424,0.707       C4.066,135.199,4.199,135.502,4.639,135.54L4.639,135.54z"/>
					<path style="fill:#000E3F;" d="M196.306,112.69c-4.144,0-8.069-0.736-11.382-2.166c-4.987-2.153-8.058-5.625-8.644-9.777       c-1.176-8.316,8.024-16.262,20.946-18.091c5.986-0.851,11.847-0.204,16.5,1.802c4.987,2.153,8.058,5.625,8.644,9.777l0,0       c0.588,4.15-1.401,8.337-5.596,11.786c-3.917,3.219-9.369,5.457-15.353,6.303C199.697,112.569,197.985,112.69,196.306,112.69z        M202.359,86.312c-1.493,0-3.024,0.108-4.57,0.326c-10.332,1.463-18.358,7.665-17.528,13.548       c0.384,2.709,2.604,5.068,6.256,6.644c3.984,1.719,9.077,2.254,14.34,1.513c5.264-0.745,10.009-2.671,13.362-5.427       c3.071-2.525,4.552-5.407,4.168-8.119l0,0c-0.384-2.709-2.604-5.071-6.256-6.646C209.318,86.936,205.949,86.312,202.359,86.312       z"/>
				</g>
			</g>
			<g>
				<g>
					<path style="fill:#FC09B2;" d="M12.462,321.865c0.302,3.334,3.786,6.128,6.992,7.293c3.88,1.406,7.496,1.159,9.872,0.226       c1.243-0.491,1.339-0.834,1.675,0.974c0.886,4.763,4.129,10.19,9.244,9.298c3.014-0.525,6.187-2.694,8.124-4.796       c0.416-0.441,0.656-0.421,0.95,0.04c4.483,7.008,15.233,8.058,18.695,3.589c0.307-0.4,0.371-0.813,0.091-1.27       c-2.537-4.133-3.061-4.769-3.936-6.993c-0.049-0.134-0.107-0.263-0.172-0.395c-0.318-0.752-0.701-1.486-0.989-2.266       c-5.456-14.802,11.756-54.243,9.665-72.276c-0.45-3.834-2.278-10.446-4.016-12.997c-1.271-1.874-1.711-1.946-3.676-1.166       c-2.135,0.849-7.28,4.297-11.973,10.401c-1.447,1.884-2.85,4.019-4.112,6.406c-7.11,13.497-16.044,51.716-28.599,59.049       C13.019,321.227,12.324,320.317,12.462,321.865z"/>
					<g>
						<path style="fill:#FF8EDE;" d="M59.163,251.652c-4.442,5.336-7.188,11.6-9.806,17.776c-2.568,6.221-4.68,12.585-6.776,18.932        c-1.953,6.394-3.894,12.779-5.726,19.178c-0.906,3.202-1.832,6.395-2.811,9.558c-0.924,3.181-1.953,6.323-3.16,9.326        l-0.026,0.062c-0.197,0.491,0.041,1.05,0.532,1.247c0.457,0.184,0.972-0.01,1.201-0.433c3.274-6.053,5.325-12.43,7.509-18.747        c2.13-6.334,4.044-12.716,6.124-19.034c1.921-6.368,4.031-12.66,6.246-18.888c0.528-1.571,1.119-3.108,1.721-4.642        c0.57-1.553,1.217-3.061,1.886-4.558c1.218-3.069,2.788-5.909,4.499-8.653l0.044-0.071c0.264-0.422,0.134-0.978-0.287-1.241        C59.945,251.222,59.447,251.31,59.163,251.652z"/>
						<path style="fill:#FF8EDE;" d="M65.861,254.338c-0.158,3.231-0.459,6.45-1.098,9.664c-0.536,3.218-1.253,6.422-2.016,9.613        c-1.529,6.386-3.244,12.757-5.093,19.095l-5.318,19.129c-1.619,6.454-3.565,12.763-4.014,19.709        c-0.034,0.527,0.366,0.982,0.893,1.017c0.498,0.032,0.932-0.322,1.007-0.806l0.017-0.107c0.472-3.076,1.499-6.282,2.426-9.407        c0.948-3.154,1.929-6.306,2.937-9.457c1.996-6.307,3.879-12.669,5.735-19.048c1.693-6.425,3.444-12.85,4.673-19.425        c1.188-6.561,2.263-13.255,1.654-20.08c-0.044-0.496-0.482-0.862-0.978-0.818c-0.454,0.04-0.799,0.411-0.821,0.854        L65.861,254.338z"/>
						<path style="fill:#FF8EDE;" d="M74.788,244.847c7.588-7.847,7.316-18.013,3.024-23.087c-5.378-6.37-14.925-2.126-18.175,5.266        C55.669,236.076,62.108,258.001,74.788,244.847z"/>
					</g>
					<path style="opacity:0.25;fill:#000E3F;" d="M12.462,321.865c0.302,3.334,3.786,6.128,6.992,7.293       c3.88,1.406,7.496,1.159,9.872,0.226c1.243-0.491,1.339-0.834,1.675,0.974c0.886,4.763,4.129,10.19,9.244,9.298       c3.014-0.525,6.187-2.694,8.124-4.796c0.416-0.441,0.656-0.421,0.95,0.04c4.483,7.008,15.233,8.058,18.695,3.589       c0.307-0.4,0.371-0.813,0.091-1.27c-2.537-4.133-3.061-4.769-3.936-6.993c-0.049-0.134-0.107-0.263-0.172-0.395       c-0.18,0.028-0.396,0.075-0.658,0.131c-6.143,1.358-11.729-1.486-14.588-6.358c-7.953-13.592,15.226-51.552,4.259-72.076       c-1.447,1.884-2.85,4.019-4.112,6.406c-7.11,13.497-16.044,51.716-28.599,59.049C13.019,321.227,12.324,320.317,12.462,321.865       z"/>
					<path style="opacity:0.5;fill:#FC09B2;" d="M67.318,249.327c2.764-0.486,5.334-2.264,7.47-4.479       c-1.874,0.033-4.002-0.676-4.936-2.282c-2.901-4.979,0.69-10.197-0.18-18.634c-0.17-1.691-0.47-3.344-1.196-4.873       c-3.7,1.07-7.162,4.151-8.839,7.967C55.669,236.076,59.091,250.774,67.318,249.327z"/>
				</g>
				<path style="fill:#000E3F;" d="M113.317,124.547c15.262-4.781,35.672-12.526,65.851-21.422c-0.46-0.827-0.759-1.724-0.896-2.666      c-0.07-0.414-0.092-0.828-0.092-1.241c-16.434,4.85-33.994,10.55-56.082,18.25c-13.952,4.85-29.466,8.183-41.947,17.215      c-18.617,13.446-10.389,32.293-3.792,47.44c4.528,10.366,3.7,24.249-1.241,35.235c-2.183-0.873-4.643-0.965-7.195-0.23      c-4.344,1.241-8.205,4.735-10.136,9.102c-2.344,5.333-2.367,12.411-0.413,17.675c-1.885,1.655-3.93,3.77-5.953,6.39      c-1.609,2.115-3.056,4.367-4.298,6.711c-2.367,4.482-4.827,11.332-7.654,19.238c-5.493,15.331-12.319,34.408-20.18,39.005      c-3.057,1.77-4.918,2.62-6.045,3.126c-1.448,0.667-2.804,1.287-2.804,3.264c0,0.115,0,0.276,0.022,0.414      c0.253,2.85,2.207,5.585,5.379,7.539c4.068,2.505,9.217,3.264,13.354,1.976c1.379,5.884,5.631,11.079,11.4,10.067      c3.08-0.528,6.022-2.413,8.068-4.252c2.804,3.402,7.218,5.585,11.883,5.792h0.736c3.586,0,6.596-1.241,8.32-3.471      c1.333-1.724,0.552-2.988-0.345-4.459c-0.666-1.08-1.77-2.896-3.402-6.206c-3.93-9.263,0-25.237,3.816-40.706      c3.103-12.573,6.022-24.478,5.01-33.282c-0.207-1.655-0.666-3.976-1.333-6.298c0.988-0.69,1.954-1.54,2.896-2.506      c1.333-1.379,2.597-3.034,3.678-4.781c3.562-5.769,4.321-15.216-0.575-21.008c-0.253-0.299-0.528-0.575-0.805-0.85      c5.677-12.09,6.619-27.398,1.517-39.097C67.187,151.025,67.026,139.096,113.317,124.547z M14.461,321.685l-2,0.184l2-0.276      V321.685z M70.681,255.512c0.942,8.091-1.908,19.652-4.919,31.88c-3.976,16.066-8.068,32.707-3.562,43.326      c1.746,3.586,2.942,5.493,3.631,6.643c0.069,0.115,0.138,0.23,0.207,0.322c-1.103,1.034-3.057,1.609-5.31,1.471      c-3.125-0.138-7.332-1.609-9.722-5.332c-0.598-0.965-1.379-1.241-1.908-1.287h-0.23c-0.713,0-1.379,0.322-1.977,0.965      c-1.609,1.747-4.413,3.724-6.987,4.183c-3.907,0.712-6.275-4.229-6.918-7.7c-0.207-1.011-0.414-2.161-1.494-2.735      c-1.034-0.552-1.977-0.138-2.529,0.115l-0.367,0.161c-3.103,1.195-7.378,0.666-10.642-1.356      c-1.862-1.126-3.057-2.551-3.402-3.953c0.115-0.046,0.23-0.115,0.368-0.161c1.172-0.552,3.149-1.448,6.39-3.333      c9.125-5.333,15.928-24.341,21.95-41.119c2.667-7.447,5.171-14.48,7.424-18.733c1.127-2.137,2.437-4.183,3.908-6.114      c1.609-2.092,3.218-3.815,4.711-5.194c0.092,0.138,0.184,0.276,0.299,0.413c1.77,2.275,4.091,3.471,6.62,3.471      c0.46,0,0.965-0.046,1.448-0.138c0.69-0.115,1.379-0.298,2.068-0.552C70.199,252.478,70.52,254.179,70.681,255.512z       M76.496,239.354c-0.919,1.494-2.022,2.919-3.149,4.091c-0.437,0.436-0.874,0.85-1.31,1.218      c-1.149,1.011-2.322,1.747-3.471,2.207c-0.529,0.23-1.057,0.391-1.586,0.482c-1.632,0.276-3.011-0.322-4.229-1.861      c-0.114-0.161-0.229-0.322-0.345-0.483c-0.713-1.034-1.264-2.321-1.655-3.746c-1.172-4.16-0.988-9.516,0.736-13.423      c1.425-3.241,4.39-5.93,7.562-6.849c0.666-0.207,1.448-0.344,2.252-0.344c0.643,0,1.31,0.092,1.976,0.298      c1.034,0.345,2.046,0.989,2.988,2.115c0.092,0.115,0.207,0.253,0.275,0.368C79.898,227.816,79.185,235.011,76.496,239.354z"/>
			</g>
		</g>
	</g>
	<g>
		<g>
			<g>
				<g>
					<path style="fill:#FFCF00;" d="M217.471,442.787l16.226,8.041c3.026,1.5,6.638,1.094,9.246-1.052       c23.155-19.059,138.961-107.046,168.047-124.575c26.216-15.8,75.105-46.448,95.169-56.732c2.089-1.071,1.386-4.209-0.958-4.312       l-17.202-0.753L217.471,442.787z"/>
					<path style="fill:#FFCF00;" d="M509.78,244.288c-0.754,4.887-3.528,8.581-5.996,11.05c0,0-38.878,24.42-88.169,56.215       c-7.884,5.094-16.049,10.392-24.373,15.77c-63.541,41.363-135.833,89.726-164.453,113.821c0,0-9.993,12.305-32.166-20.562       c-9.9-14.682-13.222-25.294-13.853-32.564c-0.61-6.654,2.933-13.005,8.846-16.125c23.491-12.421,107.596-56.973,178.542-95.743       c7.909-4.33,15.636-8.574,23.115-12.695c34.12-18.822,62.72-35.049,76.079-43.722c6.429-4.163,14.417-5.432,21.693-2.988       c0.053,0.015,0.129,0.024,0.186,0.063C500.515,220.699,511.625,232.439,509.78,244.288z"/>
				</g>
				<g>
					<path style="fill:#FD8A02;" d="M196.678,367.334c1.762,0.338,3.554,0.654,5.315,1.094c1.698,0.608,3.446,1.146,5.128,1.834       c1.607,0.832,3.269,1.599,4.831,2.524c1.501,1.013,3.074,1.949,4.523,3.042c5.821,4.376,10.623,9.998,14.365,16.211       c3.696,6.242,6.324,13.162,7.388,20.371c0.222,1.806,0.339,3.628,0.507,5.432c0.025,1.82-0.053,3.644-0.092,5.456       c-0.231,1.808-0.558,3.603-0.836,5.387c-0.469,1.757-1.022,3.489-1.564,5.202c-0.191,0.605-0.837,0.94-1.442,0.748       c-0.555-0.176-0.884-0.736-0.785-1.294l0.026-0.146l0.884-5.005c0.086-1.695,0.225-3.373,0.275-5.049       c-0.091-1.686-0.103-3.367-0.227-5.039c-0.264-1.667-0.469-3.335-0.77-4.985c-1.375-6.582-3.846-12.952-7.315-18.733       c-3.421-5.807-7.802-11.047-12.915-15.422c-1.275-1.096-2.669-2.039-4.002-3.076c-1.387-0.95-2.878-1.729-4.311-2.625       c-1.482-0.79-3.037-1.442-4.566-2.182l-4.824-1.615l-0.139-0.047c-0.566-0.189-0.87-0.801-0.681-1.366       C195.624,367.533,196.155,367.233,196.678,367.334z"/>
					<path style="fill:#FD8A02;" d="M216.563,433.616c-1.01,0-1.879-0.759-1.996-1.785c-0.126-1.104,0.667-2.099,1.771-2.224       c3.517-0.4,5.746-2.11,6.817-5.228c2.976-8.682-3.993-26.868-14.071-36.717c-2.779-2.718-8.175-7.008-13.036-5.207       c-1.618,0.597-2.364,2.471-2.213,5.569c0.536,11.086,12.866,31.938,19.988,33.808c1.142,0.292,1.831-0.004,2.496-1.062       c1.818-2.893-0.094-11.602-4.096-18.639c-2.846-5.003-6.135-8.094-8.606-8.094c-0.022,0-0.047,0-0.072,0.002       c-0.999,0.025-1.104,0.312-1.14,0.406c-1.217,3.306,7.072,15.344,9.021,17.086c0.826,0.741,0.898,2.013,0.157,2.841       c-0.741,0.826-2.013,0.898-2.842,0.157c-1.508-1.351-12.401-15.247-10.112-21.474c0.406-1.1,1.569-2.958,4.817-3.039       c0.058,0,0.119-0.002,0.177-0.002c5.508,0,9.934,6.327,12.096,10.13c4.217,7.416,7.055,17.914,4.004,22.767       c-1.612,2.559-4.072,3.562-6.92,2.81c-9.463-2.482-22.399-25.391-22.987-37.502c-0.305-6.296,2.462-8.662,4.839-9.539       c5.142-1.892,11.268,0.269,17.241,6.105c10.285,10.051,18.911,29.678,15.063,40.898c-1.58,4.606-5.095,7.344-10.168,7.919       C216.716,433.611,216.639,433.616,216.563,433.616z"/>
				</g>
				<path style="opacity:0.75;fill:#FFFFFF;" d="M481.354,228.001c-4.205,3.223-8.589,6.123-13.035,8.908      c-4.435,2.806-8.977,5.42-13.539,7.997c-4.596,2.516-9.215,4.99-13.94,7.274c-4.713,2.304-9.49,4.492-14.448,6.353      c-0.957,0.359-2.025-0.125-2.385-1.083c-0.294-0.783-0.021-1.641,0.611-2.124c4.211-3.211,8.603-6.096,13.059-8.865      c4.445-2.789,8.995-5.388,13.569-7.945c4.606-2.496,9.234-4.954,13.968-7.221c4.723-2.287,9.508-4.461,14.473-6.311      c0.901-0.336,1.905,0.122,2.241,1.024C482.2,226.745,481.945,227.547,481.354,228.001z"/>
				<g>
					<g>
						<path style="fill:#FC09B2;" d="M415.615,311.553c-7.884,5.094-16.049,10.392-24.373,15.77        c3.883-30.807-16.449-46.817-23.084-51.173c7.909-4.33,15.636-8.574,23.115-12.695        C402.383,273.806,413.305,290.024,415.615,311.553z"/>
					</g>
					<path style="fill:#FC09B2;" d="M246.508,388.54c1.602-7.57,10.849-13.22,18.254-13.222c7.33-0.002,11.075,7.248,4.104,14.519       C259.317,399.797,244.43,398.36,246.508,388.54z"/>
					<path style="fill:#FC09B2;" d="M326.045,342.575c-7.359-2.391-16.871,2.8-20.57,9.215c-3.661,6.35,0.751,13.214,10.531,10.805       C329.404,359.294,335.59,345.678,326.045,342.575z"/>
				</g>
			</g>
			<g>
				<path style="fill:#000E3F;" d="M288.942,345.75c-0.943,0.575-1.264,1.793-0.713,2.758c2.896,4.896,3.195,12.067-1.908,15.722      c-2.597,1.885-5.309,1.77-7.102,1.356c-3.448-0.782-6.849-3.448-8.665-6.804c-0.529-0.988-1.747-1.356-2.735-0.827      c-0.966,0.529-1.333,1.747-0.805,2.735c2.368,4.39,6.711,7.769,11.308,8.826c1.035,0.23,2.046,0.368,3.057,0.368      c2.621,0,5.103-0.805,7.309-2.391c7.033-5.056,6.804-14.595,3.011-21.031C291.148,345.52,289.907,345.198,288.942,345.75z"/>
				<path style="fill:#000E3F;" d="M309.812,326.787l-3.425,3.402l1.081-4.528c0.253-1.08-0.414-2.16-1.494-2.414      c-1.08-0.253-2.184,0.414-2.436,1.494l-1.11,4.729c-0.673-0.01-1.37,0.084-2.08,0.302c-3.347,1.027-5.955,4.491-5.352,8.595      c1.061,7.223,10.84,7.641,13.695,1.111c0.856-1.959,0.708-4.05-0.109-5.812l4.059-4.028c0.781-0.782,0.781-2.046,0-2.827      C311.857,326.006,310.593,326.006,309.812,326.787z"/>
				<path style="fill:#000E3F;" d="M511.776,244.595c1.999-12.963-9.745-25.467-21.812-29.673l-0.276-0.092      c-7.722-2.598-16.273-1.425-23.421,3.218c-11.768,7.631-36.89,22.088-74.677,42.935l-1.287,0.712      c-7.47,4.115-15.193,8.367-23.123,12.688c-67.965,37.143-147.469,79.32-178.498,95.731c-6.712,3.54-10.596,10.642-9.929,18.089      c1.81,20.775,24.819,52.093,37.879,56.404c15.134,7.17,16.7,9.125,20.87,9.125c2.413,0,4.804-0.828,6.712-2.414      c25.03-20.571,139.401-107.268,167.81-124.392c25.452-15.323,75.24-46.529,95.064-56.657c3.925-2.065,2.585-7.91-1.793-8.113      l-7.999-0.345c4.781-3.011,7.447-4.689,7.562-4.758C505.041,256.815,510.587,252.163,511.776,244.595z M390.947,265.924      c7.7,7.47,19.721,22.387,22.502,44.498c-14.284,9.346-18.457,12.077-19.503,12.761c-0.01,0.006-0.027,0.018-0.053,0.035      c0.005-0.003,0.007-0.005,0.012-0.008c-0.072,0.047-0.123,0.08-0.164,0.108c0.004-0.003,0.008-0.005,0.012-0.008      c-0.016,0.011-0.034,0.022-0.052,0.034c-0.01,0.006-0.021,0.014-0.028,0.018c0-0.001,0.001-0.001,0.002-0.001      c-0.002,0.001-0.003,0.002-0.005,0.003c-0.014,0.009-0.026,0.017-0.031,0.021c0.003-0.002,0.008-0.005,0.013-0.008      c-0.006,0.004-0.009,0.006-0.015,0.009l0,0c-0.006,0.005-0.005,0.004,0,0c1.563-25.904-13.745-41.005-21.698-47.026      C378.42,272.82,384.764,269.326,390.947,265.924z M217.253,440.538c-11.326-4.46-32.832-33.558-34.477-52.703      c-0.528-5.838,2.528-11.377,7.792-14.159c30.868-16.319,109.728-58.174,177.463-95.156c6.964,4.85,24.41,19.973,21.307,47.647      C206.536,445.11,227.836,444.771,217.253,440.538z M505.249,266.683c-20.359,10.447-71.674,42.575-95.294,56.795      C380.006,341.52,263.406,430.31,241.662,448.214c-5.004,4.131-10.223-1.467-16.227-3.724      c6.553-2.923,18.076-22.102,265.908-178.934C502.546,266.053,506.368,265.937,505.249,266.683z M417.195,308.147      c0-0.069-0.023-0.115-0.023-0.184c-3.241-21.445-14.664-36.177-22.548-44.061c37.258-20.571,62.104-34.868,73.826-42.476      c3.976-2.597,8.481-3.93,12.917-3.93c2.39,0,4.758,0.391,7.033,1.149l0.183,0.069c13.807,4.774,27.047,21.628,13.929,35.051      C488.009,262.747,437.914,294.803,417.195,308.147z"/>
				<path style="fill:#000E3F;" d="M258.364,359.536c-3.255-2.572-7.558-2.041-10.119,0.346c-0.545,0.508-0.976,1.067-1.304,1.657      l-4.659-1.401c-1.057-0.322-2.183,0.299-2.506,1.356c-0.321,1.057,0.299,2.184,1.356,2.505l4.436,1.333l-4.62,1.264      c-1.08,0.275-1.724,1.379-1.425,2.459c0.252,0.896,1.057,1.471,1.93,1.471c0.184,0,0.368-0.023,0.552-0.069l5.497-1.502      c1.119,1.59,2.858,2.765,4.985,3.001C259.573,372.744,264.093,364.062,258.364,359.536z"/>
			</g>
		</g>
		<g>
			<g>
				<g>
					<path style="fill:#FC09B2;" d="M419.481,278.305c-0.213,2.998-0.671,7.656-3.774,9.057c-4.529,2.077-18.294,1.234-29.234-1.307       c-0.692-0.18-1.385-0.338-2.054-0.518c0.159-0.393,0.272-0.785,0.385-1.201c0.068-0.185,0.113-0.393,0.158-0.6       c1.462-6.347-1.57-12.599-6.547-16.189c7.947-8.805,20.77-19.55,26.408-21.127c0.875-0.235,1.705-0.171,2.513,0.101       c3.603,1.247,6.425,6.947,7.662,9.59C418.194,262.892,420.037,270.788,419.481,278.305z"/>
					<path style="fill:#FC09B2;" d="M424.766,319.601c-0.866,1.595-3.004,2.599-4.729,3.185c-2.208,0.75-4.33,0.578-6.588,0.845       c-1.428,0.17-1.2-0.201-1.423,0.93c-0.134,0.738,0.381,2.095,0.477,2.878c0.268,2.603,0.125,5.738-0.714,8.256       c-1.155,3.487-3.119,2.784-6.17,1.211c-11.929-6.177-24.368-25.006-29.857-37.421c-0.654-1.471-1.308-3.035-1.939-4.668       c4.695-1.203,8.802-4.338,10.595-9.281c0.159-0.393,0.272-0.785,0.385-1.201c0.534,0.55,1.09,1.123,1.669,1.719       c6.074,6.096,15.598,14.869,30.755,25.361c1.019,0.732,1.967,1.326,2.823,1.897c1.782,1.189,3.217,2.24,4.448,3.916       C425.428,318.468,425.132,318.907,424.766,319.601z"/>
					<path style="fill:#FC09B2;" d="M366.85,264.501c-7.186,0.917-12.086,6.616-13.271,12.915c-0.067,0.346-0.111,0.692-0.155,1.038       c-0.554-0.089-1.131-0.224-1.708-0.359c-10.962-2.427-23.739-7.654-26.942-11.485c-2.182-2.615-0.57-7.004,0.543-9.822       c2.748-7,7.83-13.298,13.657-18.034c2.271-1.834,7.296-5.735,11.078-5.319c0.831,0.111,1.616,0.406,2.288,1.001       C356.673,238.261,363.466,253.181,366.85,264.501z"/>
					<path style="fill:#FC09B2;" d="M358.894,291.86c-1.123,1.067-2.27,2.064-3.371,2.993       c-10.321,8.818-29.731,20.362-43.144,20.762c-3.434,0.089-5.509-0.107-5.046-3.774c0.33-2.629,1.581-5.518,2.952-7.738       c0.411-0.648,1.488-1.645,1.669-2.384c0.293-1.108,0.341-0.67-0.861-1.447c-1.943-1.233-3.907-1.983-5.576-3.633       c-1.298-1.283-2.807-3.095-2.886-4.939c-0.027-0.737-0.1-1.29,1.279-2.013c1.839-0.955,3.588-1.288,5.684-1.577       c1.036-0.144,2.142-0.289,3.385-0.481c18.238-2.871,30.617-6.653,38.737-9.534c0.644-0.234,1.265-0.445,1.862-0.679       c-0.067,0.346-0.111,0.692-0.155,1.038c-0.242,2.03-0.115,4.08,0.45,6.059C354.883,287.665,356.671,290.098,358.894,291.86z"/>
					<path style="fill:#FC09B2;" d="M384.962,283.735c-2.425,11.17-17.06,15.241-26.068,8.125c-0.022,0.023-0.022,0.023-0.023,0       c-1.459-1.167-2.712-2.635-3.667-4.336c-0.512-0.872-0.933-1.838-1.284-2.85c-0.001-0.231-2.253-6.994,2.273-13.566       c5.966-8.747,18.227-8.864,25.026-1.02v0.023c0.325,0.367,0.626,0.734,0.905,1.101       C384.934,274.931,385.951,279.466,384.962,283.735z"/>
				</g>
				<path style="opacity:0.5;fill:#FFFFFF;" d="M370.701,273.085c-1.719,0.109-3.46,0.802-4.924,1.882      c-0.725,0.535-1.398,1.14-1.884,1.786c-0.509,0.623-0.814,1.266-0.934,1.645l-0.179,0.56c-0.408,1.277-1.773,1.982-3.05,1.575      c-1.05-0.335-1.713-1.321-1.689-2.37c0.045-1.94,0.851-3.437,1.75-4.62c0.942-1.169,2.034-2.096,3.243-2.815      c2.392-1.397,5.329-2.182,8.22-1.44c1.029,0.264,1.65,1.313,1.385,2.343c-0.212,0.827-0.93,1.389-1.738,1.442L370.701,273.085z"/>
				<g style="opacity:0.25;">
					<path style="fill:#000E3F;" d="M419.481,278.305c-0.213,2.998-0.671,7.656-3.774,9.057c-4.828,2.194-20.047,1.129-31.242-1.826       c-0.023,0-0.046,0-0.046,0c0.159-0.393,0.272-0.785,0.385-1.201c0.068-0.185,0.113-0.393,0.158-0.6       c0.45-1.962,0.484-3.944,0.128-5.809c0.046-0.023,0.092-0.023,0.137-0.047c5.682-1.946,12.205-2.007,17.465-5.08       c3.974-2.351,6.764-6.101,7.382-10.922c0.573-4.567-0.747-9.584-2.247-13.954c-0.234-0.598-0.398-1.081-0.492-1.403       c3.603,1.247,6.425,6.947,7.662,9.59C418.194,262.892,420.037,270.788,419.481,278.305z"/>
					<path style="fill:#000E3F;" d="M424.766,319.601c-0.866,1.595-3.004,2.599-4.729,3.185c-2.208,0.75-4.33,0.578-6.588,0.845       c-1.428,0.17-1.2-0.201-1.423,0.93c-0.134,0.738,0.381,2.095,0.477,2.878c0.268,2.603,0.125,5.738-0.714,8.256       c-1.155,3.487-3.119,2.784-6.17,1.211c-11.929-6.177-24.368-25.006-29.857-37.421c-0.631-1.448-1.285-2.966-1.916-4.576       c0-0.023,0-0.046-0.023-0.092c1.127-0.283,2.232-0.681,3.266-1.217c0.023,0.023,0.047,0.069,0.047,0.092       c4.084,8.758,11.095,17.454,23.267,18.006c4.681,0.204,8.181-0.278,12.379,0.136c0.946,0.087,4.129,0.53,4.706,0.71       c0.946,0.272,1.801,0.52,2.562,0.769c1.782,1.189,3.217,2.24,4.448,3.916C425.428,318.468,425.132,318.907,424.766,319.601z"/>
					<path style="fill:#000E3F;" d="M356.193,271.109c-1.303,1.897-2.189,4.046-2.615,6.307c-0.067,0.346-0.111,0.692-0.155,1.038       c-11.307-2.24-25.26-7.806-28.649-11.844c-2.182-2.615-0.57-7.004,0.543-9.822c2.748-7,7.83-13.298,13.657-18.034       c2.271-1.834,7.296-5.735,11.078-5.319c-0.252,0.255-0.596,0.603-1.054,1.066c-3.254,3.269-6.62,7.23-8.093,11.594       c-1.541,4.618-0.639,9.2,1.942,13.035C346.173,264.136,351.929,266.984,356.193,271.109z"/>
					<path style="fill:#000E3F;" d="M358.871,291.861c-1.124,1.066-2.247,2.064-3.348,2.992       c-10.321,8.818-29.731,20.362-43.144,20.762c-3.434,0.089-5.509-0.107-5.046-3.774c0.33-2.629,1.581-5.518,2.952-7.738       c0.411-0.648,1.488-1.645,1.669-2.384c0.293-1.108,0.341-0.67-0.861-1.447c-1.943-1.233-3.907-1.983-5.576-3.633       c-1.298-1.283-2.807-3.095-2.886-4.939c-0.027-0.737-0.1-1.29,1.279-2.013c1.839-0.955,3.588-1.288,5.684-1.577       c0.808,0.111,1.684,0.244,2.653,0.4c0.6,0.089,3.671,1.085,4.55,1.426c3.972,1.452,6.911,3.395,11.208,5.237       c10.998,4.685,20.93,0.156,28.363-5.787c0.023-0.023,0.023-0.023,0.046-0.046C357.134,290.28,357.968,291.128,358.871,291.861z       "/>
					<path style="fill:#000E3F;" d="M384.962,283.735c-2.425,11.17-17.06,15.241-26.068,8.125c-0.022,0.023-0.022,0.023-0.023,0       c-1.459-1.167-2.712-2.635-3.667-4.336c0.32-0.44,0.664-0.833,1.053-1.205c2.292-2.226,5.605-3.328,8.765-2.909       c2.353,0.309,4.664,1.402,7.013,0.951c2.371-0.429,4.204-2.398,5.39-4.503c1.186-2.127,1.911-4.459,3.143-6.564       c0.434-0.74,0.96-1.458,1.555-2.084C384.934,274.931,385.951,279.466,384.962,283.735z"/>
				</g>
			</g>
			<path style="fill:#000E3F;" d="M426.113,316.008c-1.471-1.954-3.172-3.195-4.941-4.367l-0.736-0.483     c-0.644-0.436-1.333-0.873-2.068-1.402c-11.47-7.929-19.698-14.871-25.605-20.433c4.896,0.782,9.86,1.218,14.09,1.218     c4.183,0,7.677-0.437,9.676-1.333c4.321-1.953,4.758-7.907,4.965-10.757c0.552-7.424-1.126-15.653-4.666-23.191     c-1.839-3.885-4.758-9.217-8.826-10.642c-1.241-0.414-2.482-0.483-3.701-0.138c-5.493,1.563-17.675,11.355-26.018,20.25     c-2.735-1.563-5.884-2.367-9.263-2.367h-0.068c-0.207,0-0.437,0-0.644,0.023c-3.655-11.63-10.343-25.674-14.641-29.443     c-0.942-0.85-2.091-1.356-3.379-1.494c-4.321-0.506-9.24,3.057-12.572,5.746c-6.482,5.263-11.539,11.952-14.273,18.87     c-1.057,2.666-3.241,8.205-0.207,11.837c2.873,3.425,11.998,7.631,21.376,10.435c-7.745,2.437-18.158,5.148-31.949,7.309     c-0.896,0.138-1.724,0.253-2.482,0.345l-0.851,0.115c-2.092,0.299-4.16,0.666-6.344,1.793c-2.16,1.149-2.413,2.505-2.367,3.816     h2.022l1.908-0.161c0,0.023-0.023,0.046-0.023,0.069l-1.885,0.092l-2.022,0.069v0.023c0.091,1.977,1.264,4.091,3.494,6.275     c1.333,1.31,2.781,2.114,4.16,2.896c0.459,0.23,0.897,0.483,1.333,0.735c-0.069,0.115-0.161,0.207-0.23,0.276     c-0.322,0.391-0.598,0.759-0.781,1.057c-1.747,2.781-2.919,5.884-3.264,8.551c-0.23,1.977,0.092,3.425,1.057,4.482     c1.195,1.31,2.942,1.563,4.965,1.563c0.345,0,0.713,0,1.08-0.023c14.71-0.414,35.028-13.239,44.383-21.215     c0.758-0.644,1.494-1.287,2.229-1.954c0.092,0.069,0.184,0.138,0.299,0.207c3.103,1.908,6.643,2.827,10.136,2.827     c1.057,0,2.114-0.092,3.149-0.253c0.391,1.034,0.851,2.046,1.287,3.057c4.964,11.262,17.721,31.627,30.776,38.384     c1.609,0.851,3.103,1.54,4.575,1.54c0.505,0,1.034-0.092,1.563-0.299c1.31-0.528,2.252-1.701,2.873-3.586     c0.85-2.528,1.149-5.861,0.781-9.102c-0.023-0.344-0.138-0.804-0.253-1.287c-0.023-0.115-0.046-0.23-0.092-0.345     c0.529-0.046,1.034-0.092,1.517-0.115c1.609-0.092,3.264-0.184,5.033-0.781c2.943-1.011,4.919-2.39,5.861-4.16l0.046-0.069     C427.193,319.294,427.561,317.961,426.113,316.008z M405.358,248.364c0.207-0.046,0.391-0.092,0.575-0.092     c0.23,0,0.483,0.046,0.736,0.138c1.356,0.483,3.586,2.344,6.505,8.55c3.264,6.941,4.803,14.457,4.321,21.191     c-0.092,1.057-0.207,2.643-0.575,4.115c-0.367,1.448-0.988,2.781-2.045,3.264c-3.816,1.747-16.779,1.057-27.375-1.333     l-0.437-0.437v-0.023c1.149-5.448-0.391-11.332-4.505-15.699c-0.23-0.23-0.483-0.459-0.713-0.712     c-0.092-0.092-0.184-0.161-0.276-0.23C389.131,259.167,400.094,249.835,405.358,248.364z M326.338,265.327h-0.023     c-1.495-1.793,0.092-5.838,0.873-7.792c2.459-6.275,7.102-12.389,13.055-17.215c4.896-3.977,7.677-4.896,9.194-4.896     c0.138,0,0.276,0,0.391,0.023c0.482,0.046,0.85,0.207,1.195,0.506c4.091,3.609,9.883,16.641,13.239,27.03     c-3.632,0.965-6.803,3.103-9.194,6.251c-1.518,2.023-2.598,4.298-3.195,6.666c-0.092,0.046-0.207,0.069-0.299,0.115     C341.001,273.555,329.027,268.544,326.338,265.327z M354.218,293.322c-11.216,9.562-29.719,19.928-41.901,20.273     c-1.724,0.069-2.712-0.023-2.942-0.207c0,0-0.161-0.299-0.046-1.287c0.276-2.069,1.264-4.666,2.666-6.942     c0.115-0.184,0.299-0.391,0.483-0.598c0.552-0.689,1.195-1.448,1.425-2.344l0.069-0.253c0.253-0.919,0.391-2.206-1.264-3.08     c-0.138-0.069-0.299-0.161-0.551-0.322c-0.644-0.391-1.287-0.758-1.931-1.103c-1.264-0.713-2.344-1.333-3.31-2.252     c-1.402-1.379-2.229-2.69-2.275-3.586h-0.069c0.069-0.023,0.138-0.092,0.253-0.138c1.494-0.781,2.919-1.081,5.056-1.379     l0.828-0.115c0.804-0.115,1.655-0.23,2.574-0.368c17.607-2.781,29.834-6.412,38.04-9.262c0,1.632,0.23,3.287,0.689,4.895     c0.736,2.506,2.068,4.758,3.884,6.62C355.344,292.357,354.769,292.839,354.218,293.322z M371.157,293.322     c-3.08,0.345-6.321-0.207-9.102-1.747c-0.207-0.115-0.391-0.23-0.598-0.345c-0.989-0.598-1.862-1.31-2.621-2.115     c-1.402-1.425-2.436-3.149-3.01-5.149c-0.276-0.988-0.46-2.046-0.483-3.103c-0.023-0.667,0-1.31,0.069-1.977     c0.069-0.689,0.184-1.356,0.368-2.022c0.229-0.965,0.575-1.885,1.011-2.781c0.414-0.851,0.919-1.655,1.494-2.414     c1.839-2.46,4.321-4.114,7.148-4.827c1.126-0.299,2.298-0.46,3.517-0.46c0.022,0,0.046,0,0.046,0c0.16,0,0.322,0,0.482,0.023     c2.184,0.046,4.206,0.528,6.045,1.402c1.218,0.575,2.322,1.333,3.333,2.253c0.069,0.069,0.138,0.115,0.207,0.184     c0.184,0.184,0.368,0.368,0.552,0.552c2.437,2.597,3.723,5.884,3.769,9.148c0.024,0.092,0.024,0.161,0.024,0.253     c0,0.965-0.115,1.953-0.322,2.896c-0.138,0.621-0.322,1.218-0.551,1.793c-0.23,0.667-0.552,1.333-0.92,1.954     c-0.299,0.552-0.643,1.057-1.034,1.563c-1.402,1.793-3.31,3.149-5.493,3.976C373.846,292.885,372.513,293.207,371.157,293.322z      M422.987,318.651c-0.414,0.782-1.724,1.586-3.608,2.229c-1.241,0.414-2.505,0.506-3.953,0.575     c-0.736,0.046-1.471,0.092-2.23,0.184c-0.276,0.023-0.46,0.046-0.598,0.046c-1.885,0.069-2.321,1.287-2.482,2.207l-0.046,0.276     c-0.207,0.896,0.046,1.885,0.253,2.735c0.068,0.276,0.138,0.529,0.161,0.736c0.299,2.666,0.069,5.447-0.598,7.424     c-0.299,0.919-0.575,1.126-0.575,1.126c-0.322,0.092-1.241-0.276-2.781-1.08c-10.803-5.608-22.985-22.962-28.938-36.43     c-0.367-0.828-0.712-1.655-1.057-2.483c2.827-1.126,5.356-2.919,7.217-5.332c0.713-0.919,1.333-1.885,1.816-2.896     c6.137,6.137,15.629,14.825,30.5,25.099c0.758,0.529,1.471,1.011,2.138,1.448l0.736,0.483c1.792,1.195,2.942,2.092,3.953,3.425     c0.046,0.069,0.092,0.138,0.115,0.184L422.987,318.651z"/>
		</g>
	</g>
	<g>
		<g>
			<path style="fill:#FD8A02;" d="M158.293,291.946c-1.015,10.939-5.821,33.47-12.093,43.991c-3.015,5.057-9.558,6.712-14.615,3.697     c-4.631-2.76-6.407-8.481-4.359-13.309c4.797-11.341,20.259-28.633,28.312-35.776     C156.664,289.551,158.426,290.451,158.293,291.946z"/>
			<path style="fill:#FD8A02;" d="M136.405,281.907c-5.11,7.098-17.498,20.624-26.048,25.315c-4.109,2.255-9.268,0.751-11.523-3.359     c-2.064-3.763-0.975-8.406,2.377-10.893c7.868-5.849,25.456-11.479,33.865-13.133     C136.253,279.606,137.099,280.935,136.405,281.907z"/>
			<path style="fill:#FD8A02;" d="M178.044,299.405c-2.624,8.343-6.036,26.364-4.673,36.021c0.656,4.641,4.95,7.872,9.591,7.216     c4.25-0.601,7.316-4.253,7.299-8.427c-0.028-9.804-6.053-27.261-9.764-34.985C179.978,298.149,178.407,298.267,178.044,299.405z"/>
		</g>
		<g>
			<path style="fill:#FD8A02;" d="M442.454,197.082c-1.435-10.892-7.103-33.222-13.775-43.494c-3.207-4.937-9.809-6.34-14.746-3.133     c-4.521,2.936-6.076,8.721-3.844,13.466c5.229,11.148,21.344,27.833,29.666,34.661     C440.919,199.538,442.644,198.57,442.454,197.082z"/>
			<path style="fill:#FD8A02;" d="M420.967,207.954c-5.379-6.897-18.277-19.936-27.001-24.295c-4.193-2.095-9.29-0.394-11.385,3.799     c-1.918,3.839-0.652,8.437,2.794,10.793c8.087,5.542,25.879,10.493,34.345,11.822     C420.904,210.259,421.698,208.899,420.967,207.954z"/>
			<path style="fill:#FD8A02;" d="M461.904,188.869c-2.943-8.236-7.045-26.113-6.053-35.815c0.477-4.663,4.643-8.056,9.306-7.579     c4.269,0.437,7.474,3.968,7.618,8.14c0.349,9.798-5.001,27.474-8.413,35.335C463.884,190.051,462.31,189.993,461.904,188.869z"/>
		</g>
	</g>
</g>















</svg>
