<svg id="Law_Firm" height="512" viewBox="0 0 1200 1200" width="512" xmlns="http://www.w3.org/2000/svg"><g><path d="m337.416 999.877c21.313 51.159 60.153 107.688 127.888 104.936 19.898-.059 38.464-3.586 55.834-6.743 154.75-27.506 319.152-56.552 480.837-79.989 26.889-2.244 74.813-9.641 86.803-54.555 4.746-21.371-4.479-42.021-22.908-53.734-2.174-3.396-4.359-6.789-6.543-10.182-11.777-18.291-23.021-35.758-33.084-53.678 6.123-15.523 13.289-29.84 21.422-42.793.908-.125 1.836-.252 2.768-.377 158.342-20.248 12.514-209.707-24.049-279.561-53.533-87.378-97.582-178.308-146.982-267.812-34.844-58.586-78.162-149.859-146.27-157.168-153.302-8.446-341.941 1.831-489.005 11.529-68.063-.479-124.471 34.49-150 93.256-37.49 81.321-3.787 157.951 18.424 231.352 54.024 168.023 152.637 412.035 224.865 565.519z" fill="#fff"/><g><path d="m1082.957 699.035c-21.223-56.224-54.305-107.035-84.396-158.769-53.561-87.32-98.301-179.493-147.735-269.113-24.541-40.631-70.152-134.652-119.92-140.371-69.924-4.773-140.417-3.222-210.425-1.518-91.822 2.294-183.644 6.312-275.248 13.132-53.133-.737-99.779 24.029-121.375 74.08-32.424 68.33-.25 141.5 19.939 208.46 25.271 78.292 53.852 155.523 83.676 232.181 42.672 109.254 87.631 217.691 137.201 324.01 13.377 28.465 27.674 61.564 55.281 79.15 28.914 18.422 63.799 11.396 95.363 5.679 37.17-6.737 74.369-13.306 111.585-19.788 117.566-20.375 235.221-40.355 353.219-58.08 26.053-5.008 66.141-1.336 76.795-31.639 2.377-10.702-4.748-18.361-13.834-21.701-18.035-28.393-36.996-56.373-52.557-86.232 9.074-26.512 21.359-52.047 37.635-74.896 17.475-4.727 38.145-2.691 52.762-14.592 15.78-16.02 8.403-41.244 2.034-59.993z" fill="#68182b"/><path d="m669.471 302.398c-.396 16.438-1.936 32.826-4.145 49.113-2.063 12.844-4.172 47.998-24.414 32.073-35.041-32.937-57.216-77.698-81.207-118.869-2.877-5.302-6.775-10.901-7.346-17.056-.736-8.005 6.834-12.391 12.891-6.591 12.773 16.519 22 35.837 32.437 53.954 5.731 8.241 38.225 80.995 49.137 57.865 8.404-37.812 1.449-77.752 4.35-116.009 4.33-16.517 23.334 16.078 25.875 21.509 15.014 24.603 30.705 48.931 48.564 71.579 3.102 3.888 16.682 23.123 22.387 12.642 2.773-5.095.736-12.988-.262-18.261-5.109-24.999-14.084-49.066-23.402-72.758-1.041-4.594-12.928-21.855-5.137-23.139 22.928-2.935 38.277 85.085 43.33 104 10.184 34.692 7.342 65.384-29.297 27.73-11.287-12.698-19.807-27.866-29.645-41.666-6.243-9.015-30.997-44.834-34.116-16.116z" fill="#ff801d"/><path d="m571.157 342.518c-10.633-16.613-21.73-32.938-33.514-48.76-8.738-10.414-43.764-63.354-58.144-48.375-8.921 14.365-7.243 32.983-9.091 49.271-1.33 21.646-1.275 43.373.104 65.016.922 10.495-.776 32.012 15.189 29.5 11.83-3.972-2.926-24.483 10.204-27.573 6.587-1.55 14.124-1.205 20.862-1.857 13.492.11 28.057-6.389 40.998-1.875 4.193 2.438 6.592 7.054 9.316 10.879 3.535 4.967 8.592 14.969 16.22 13.418 15.299-5.896-7.849-31.047-12.144-39.644zm-41.699-.438c-10.874 1.129-21.87 2.865-32.785 3.402-13.186.112-7.563-31.816-9.021-41.182.816-10.466-1.6-23.209 4.582-32.228 12.273-11.088 42.177 48.434 49.418 57.663 3.765 10.125-3.559 12.638-12.194 12.345z" fill="#ff801d"/><path d="m499.923 338.237c-.635.148-2.967.29-3.1.718-1.236-1.857-1.686-3.98-1.641-6.198-.488-16.046-1.264-32.174.15-48.191.326-2.123.393-4.851 1.389-6.555 5.229 3.667 8.845 9.255 12.617 14.319 8.926 13.667 19.586 27.629 26.281 42.12-11.905 1.448-23.778 2.485-35.696 3.787z" fill="#fac135"/><path d="m776.719 257.678c-28.951-45.331-42.139-76.814-102.691-76.331-85.337-.153-170.599 7.969-256.062 5.298-27.559 1.232-72.809-3.13-105.74 4.715-23.642 5.629-35.221 16.957-29.855 45.378 11.709 62.045 65.564 191.013 74.533 216.951 104.939-14.706 210.441-25.153 316.058-33.579 64.053-5.08 128.176-9.296 192.344-12.649-28.452-50.56-57.62-100.748-88.587-149.783zm-327.263 140.011c-22.678 6.235-71.596 22.88-83.949-5.622-17.079-41.472-33.869-83.146-51.77-124.243-5.671-11.111 7.709-18.93 17.461-18.338 23.525-1.39 26.736 19.3 33.447 36.7 10.01 25.734 18.377 52.277 30.035 77.293 17.303 1.023 36.125-11.104 52.729-1.922 12.641 7.597 19.746 30.025 2.047 36.132zm145.49-18.522c-1.445 5.487-6.101 9.454-11.756 9.955-12.619.902-18.193-12.518-24.871-20.883-3.208-4.441-5.607-5.678-10.959-5.051-16.527 2.287-33.553 3.697-49.959 5.134-1.383.879-.004 10.016.002 12.48-2.615 25.493-32.729 16.978-32.604-5.849-3.314-36.285-3.192-73.019 1.322-109.197 9.989-76.972 69.997 14.333 88.099 39.156 12.202 17.272 23.724 35.025 34.749 53.068 3.834 6.274 7.993 13.537 5.977 21.187zm128.933-19.456c-16.439-19.536-26.639-45.195-46.957-61.107-4.514 78.523-10.432 147.009-77.91 44.73-16.961-24.924-32.235-50.986-46.553-77.502-4.553-8.433-10.795-19.588-4.357-28.79 4.668-6.676 13.826-7.105 20.092-2.484 28.756 33.914 41.9 79.22 69.962 113.834 3.713 5.005 3.172-3.501 4.02-6.449 3.955-34.099.609-68.649 1.736-102.841 2.604-24.033 23.34-11.724 31.025 1.981 19.252 31.753 38.105 64.469 62.734 92.449 8.363 10.796 2.682-10.458 1.621-15.531-6.695-27.708-17.57-53.988-28.221-80.332-7.232-23.155 20.455-18.005 28.172-3.978 18.752 39.257 28.559 83.516 35.18 126.382 1.761 42.215-36.548 20.6-50.544-.362z" fill="#fac135"/><path d="m450.802 389.347c-11.572 6.251-26.156 7.493-38.975 10.248-11.018 1.635-32.969 4.954-39.004-7.792-8.066-18.396-15.104-37.283-22.98-55.773-9.738-23.562-19.447-47.139-29.707-70.478-2.463-6.166 3.859-8.5 9.066-9.04 10.805-1.392 20.314 3.927 22.585 15.075 7.722 20.211 15.063 40.563 22.749 60.788 4.104 10.83 7.963 21.94 13.01 32.381 1.684 3.483 3.701 5.484 7.855 5.838 8.811.746 18.377-2.829 27.008-4.176 9.875-1.538 19.77-2.982 26.705 5.675 3.479 4.344 6.777 12.802 1.688 17.254z" fill="#ff801d"/><path d="m1074.135 708.975c-18.793-54.537-50.963-103.315-79.65-153.008-76.287-119.771-129.178-253.364-210.387-369.946-13.979-17.364-29.994-39.754-53.193-43.723-29.375-2.006-58.844-2.584-88.275-2.797-129.583-.515-259.197 4.896-388.46 13.735-14.536 1.133-29.48 1.32-43.789 4.277 9.367 44.872 21.652 89.119 35.283 132.873 32.455 104.3 72.352 206.592 116.15 306.71 38.959 89.039 81.072 177.035 129.258 261.493 23.627-8.126 49.188-8.745 73.973-12.032 36.519-4.846 72.884-10.863 109.173-17.205 118.006-20.487 236.227-45.725 353.455-67.363 39.966-7.077 61.657-4.042 46.462-53.014zm-275.996 61.43c-54.828 5.617-276.546 58.418-303.917 13.11-81.322-151.799-146.451-312.428-202.789-475.06-20.912-72.526-57.809-127.897 49.68-132.172 91.641-3.249 183.502 1.174 275.144-5.451 126.271-9.332 130.516 14.762 191.602 115.323 79.711 132.968 153.773 269.675 224.15 407.651 16.892 48.092-197.868 67.868-233.87 76.599z" fill="#ffb578"/><path d="m359.534 460.241c65.301-9.152 130.845-16.555 196.47-22.93 69.288-6.73 138.688-12.314 208.147-16.944 34.961-2.33 69.936-4.392 104.926-6.202 5.789 10.321 11.551 20.656 17.293 31-171.879 9.139-343.728 22.401-514.223 46.415-4.228-10.436-8.465-20.872-12.613-31.339z" fill="#ff8e5b"/><path d="m885.957 602.133c-43.705 1.386-79.846 2.223-122.947 18.172-2.088-45.291-4.115-90.641-4.365-135.981-.049-8.199-.006-16.409.357-24.601 5.227-.104 11.066-1.297 16.008-.825 42.977 42.005 86.676 83.324 128.068 126.911 5.855 6.166 11.627 12.416 17.314 18.744-11.321-2.012-22.982-2.42-34.435-2.42z" fill="#fac135"/><path d="m921.936 637.822c-31.605 52.009-94.08 47.627-140.191 11.929-10.92-8.45-29.896-15.815 3.654-24.827 34.76-9.332 92.67-14.396 126.525-9.773 20.334 2.775 16.857 11.396 10.012 22.671z" fill="#ff801d"/><path d="m518.979 648.156c-5 .975-21.508 4.104-32.985 9.729 5.919-46.624 11.737-93.262 17.616-139.89 1.531-12.154 3.068-24.304 4.613-36.456 3.582.027 8.322-1.837 11.354-.708 46.539 49.493 83.468 106.971 124.125 161.19-41.327-5.638-83.858-1.169-124.723 6.135z" fill="#fac135"/><path d="m645.483 674.731c-32.182 53.714-96.969 48.085-143.49 10.116-10.308-8.412-15.914-16.453 6.896-22.537 33.449-8.932 88.085-13.92 122.261-10.193 21.987 2.397 24.311 5.951 14.333 22.614z" fill="#ff801d"/><path d="m560.591 790.188c-39.309-.547-48.785 1.104-65.27-28.459-15.682-28.118-29.181-58.059-43.295-86.838-27.428-58.154-52.994-117.202-77.244-176.765 42.05-5.995 84.213-11.173 126.438-15.806-7.648 60.111-15.094 120.245-22.734 180.356-4.719 4.17-6.1 9.268-.477 15.387 39.631 44.156 116.499 70.184 162.667 21.305 7.578-7.82 13.836-16.947 18.789-26.631 2.684-5.248 7.506-12.416 5.613-18.715-1.475-4.909-6.039-7.715-10.918-9.469-41.879-55.193-79.403-113.965-126.416-165.1 24.582-2.48 49.531-5.257 73.986-7.097 49.973 95.191 90.301 195.733 121.213 298.671-53.722 8.352-107.845 18.246-162.352 19.161z" fill="#fac135"/><path d="m729.84 769.928c-30.518-102.941-71.422-203.053-120.771-298.368 14.213-1.284 28.432-2.509 42.65-3.699 18.766 33.966 32.229 70.824 48.127 106.241 21.391 50.27 42.381 100.738 62.41 151.568 4.809 12.249 9.592 24.455 14.02 36.858-15.471 2.517-30.955 4.945-46.436 7.4z" fill="#ff8e5b"/><path d="m989.264 720.025c-66.639 21.945-137.344 28.881-206.111 41.374-38.123-99.263-78.137-198.12-123.746-294.186 30.869-2.545 61.756-4.873 92.656-7.011-.813 17.762-.281 35.632.135 53.385.879 36.937 2.416 73.858 4.1 110.764-5.541 4.32-7.529 9.706-1.508 16.254 28.646 29.715 69.869 52.938 112.4 46.992 30.373-3.869 55.797-25.279 69.053-52.316 6.309-12.32 5.939-18.395-.004-24.742-48.451-51.729-100.742-102.773-152.209-152.507 34.424-2.238 68.865-4.257 103.316-6.013 4.104-2.804 6.141 7.965 8.883 10.917 39.342 71.136 77.725 142.819 114.984 215.067 11.436 22.165 13.104 28.013-21.949 42.022z" fill="#fac135"/><path d="m140.143 374.607c-15.916-50.049-29.898-105.271-5.113-154.991 13.094-27.603 35.535-49.709 64.215-59.165 4.85 23.31 10.41 46.48 16.561 69.511-52.171 27.545-74.633 88.318-75.663 144.645z" fill="#ff8e5b"/><path d="m217.663 236.845c5.132 18.837 10.623 37.586 16.434 56.241-21.365 12.376-38.785 30.388-50.664 52.173-15.807 29.107-22.023 62.558-22.541 95.429-29.659-68.462-11.354-165.378 56.771-203.843z" fill="#ffb578"/><path d="m168.161 462.32c-3.976-60.43 12.073-130.427 68.059-162.481 10.525 33.348 21.971 66.417 33.926 99.211-22.359 16.559-42.865 36.485-54.113 62.375-32.372 82.848 17.315 177.841-47.872.895z" fill="#ff8e5b"/><path d="m224.841 618.254c-22.1-48.986-21.785-137.02 13.121-179.895 9.906-12.458 21.943-23.051 34.661-32.561 3.397 9.242 6.798 18.473 10.272 27.667-19.541 13.074-35.689 29.678-44.787 51.733-16.439 42.044-12.881 88.784-13.267 133.056z" fill="#ffb578"/><path d="m232.023 637.015c-.765-35.333-1.712-71.044 2.315-106.16 2.838-36.201 19.117-71.595 51.088-90.765 10.594 28.029 21.578 55.92 32.912 83.67-52.197 41.437-63.786 112.673-61.783 175.88-8.298-20.827-16.47-41.704-24.532-62.625z" fill="#ff8e5b"/><path d="m298.247 554.014c6.498-8.84 14.23-16.784 22.787-23.663 3.768 9.166 7.572 18.315 11.416 27.449-50.599 48.49-53.982 124.344-56.373 190.21-26.254-52.274-12.412-147.226 22.17-193.996z" fill="#ffb578"/><path d="m282.678 764.242c2.141-68.213 1.35-147.875 52.641-199.652 17.127 40.424 35.006 80.527 53.672 120.25-127.441 55.676-38.174 245.088-106.313 79.402z" fill="#ff8e5b"/><path d="m335.823 889.607c-5.104-11.621-10.166-23.264-15.176-34.927-4.217-47.772.197-102.423 34.711-138.632 10.299-10.808 22.84-19.111 36.518-25.01 7.313 15.443 14.666 30.867 22.285 46.16-51.445 22.838-75.407 80.151-77.871 133.71-.401 6.228-.514 12.465-.467 18.699z" fill="#ffb578"/><path d="m1045.449 950.125c4.883 10.578-17.002 18.657-24.15 20.279-167.373 24.777-334.41 53.079-501.011 82.995-30.35 5.479-65.314 14.909-93.603-2.487-27.06-17.798-39.298-49.871-53.108-77.809-10.338-22.047-20.354-44.244-30.245-66.499-3.409-48.464 4.735-102.622 39.167-138.74 9.877-10.362 21.678-18.65 34.648-24.63 19.977 40.453 40.852 80.475 63.164 119.688-50.756 23.506-90.023 91.396-64.361 145.538 20.38 41.038 70.428 32.884 107.424 24.226 70.385-12.58 140.789-25.055 211.201-37.497 99.451-16.329 198.641-37.474 298.305-50.933 4.333.307 10.519 1.424 12.569 5.869z" fill="#ff8e5b"/><path d="m424.298 999.164c-16.75-45.079 12.668-96.98 51.355-120.73 24.539 35.576-18.894 102.185-51.355 120.73z" fill="#afafaf"/><path d="m1028.094 932.721c-127.928 20.13-255.234 44.793-382.961 66.654-34.65 6.146-69.305 12.303-103.953 18.484-26.467 3.508-52.82 12.873-79.697 9.959-13.186-2.078-23.926-8.537-31.234-18.166 26.482-5.8 53.832-8.898 80.531-13.018 147.988-24.924 298.589-40.173 443.841-78.609 7.145-2.32 18.949-5.156 22.91-12.43 2.564-4.717 1.715-11.698 2.547-16.867 1.35-8.359 3.27-16.619 5.557-24.77 13.246 23.49 27.969 46.049 42.459 68.763z" fill="#ffb578"/><path d="m969.522 882.475c-1.055 5.928-1.871 11.904-2.344 17.908-1.695.715-6.307 3.568-9.813 4.542-88.781 26.489-181.578 37.42-272.703 53.255-78.521 12.641-157.208 23.881-235.748 36.444 26.68-26.062 48.493-63.673 44.602-102.056-.977-7.052-3.367-13.91-7.507-19.611 1.993-.926 3.967-1.889 6.021-2.684 29.646-10.266 61.615-9.199 92.277-14.855 80.337-11.471 160.119-26.857 239.765-42.311 62.684-12.163 125.277-24.857 188.059-36.539-20.807 31.754-35.998 68.948-42.609 105.907z" fill="#d5d5d5"/><path d="m887.346 452.019c-9.529.486-19.059 1.039-28.588 1.563 34.74 24.609 55.543 66.118 75.961 102.813 11.723 21.069 22.941 42.44 33.484 64.125 8.525 17.53 23.943 40.454 18.338 60.729-6.197 22.41-42.074 30.779-61.293 36.5-24.232 7.212-49.266 12.006-74.316 15.256-21.088 2.734-41.604 4.297-62.096-2.508-7.865-2.613-15.127-6.316-21.846-10.793 5.43 13.887 10.818 27.784 16.162 41.694 68.768-12.493 139.473-19.429 206.111-41.374 35.053-14.01 33.385-19.857 21.949-42.021-37.26-72.248-75.643-143.931-114.984-215.067-2.741-2.952-4.779-13.721-8.882-10.917z" fill="#ee9e2b"/><path d="m374.782 498.126c24.25 59.563 49.816 118.61 77.244 176.765 14.114 28.779 27.613 58.72 43.295 86.838 16.484 29.563 25.961 27.912 65.27 28.459 54.507-.914 108.63-10.809 162.353-19.16-4.51-15.022-9.285-29.979-14.199-44.892-1.631 5.7-3.893 11.202-7.26 16.358-14.986 22.951-50.883 22.588-74.824 26.318-22.488 3.506-45.236 6.385-68.009 4.264-28.928-2.695-48.811-19.338-64.961-42.426-13.529-19.34-23.003-41.404-32.184-63.031-10.768-25.361-21.717-50.639-32.596-75.951-8.975-20.881-32.744-65.647-28.928-97.014-8.404 1.134-16.806 2.276-25.201 3.472z" fill="#ee9e2b"/><path d="m672.961 420.111c64.053-5.08 128.176-9.296 192.344-12.649-8.934-15.877-17.979-31.695-27.088-47.476-.584 8.574-3.369 16.436-10.795 21.94-10.717 7.94-28.809 9.869-41.455 12.419-35.439 7.146-71.887 7.893-107.814 10.884-72.537 6.04-144.726 15.509-217.094 23.141-16.348 1.725-32.642 3.334-48.944 5.433-16.988 2.186-34.695 3.044-48.063-9.373-9.877-9.174-14.747-23.442-20.061-35.463-7.65-17.303-14.693-34.87-21.41-52.553-10.752-28.313-19.932-57.148-29.381-85.908-3.707-11.286-8.623-26.071-9.525-40.103-2.862 6.593-3.422 15.118-1.305 26.336 11.709 62.045 65.564 191.013 74.533 216.951 104.94-14.706 210.441-25.153 316.058-33.579z" fill="#ee9e2b"/><path d="m659.406 467.213c32.074 67.559 61.35 136.509 89.18 206-9.836-34.498-21.258-68.561-34.482-101.832-9.902-24.914-20.289-49.765-26.744-75.85-3.346-13.53.326-23.503 7.717-31.135-11.891.917-23.784 1.837-35.671 2.817z" fill="#fbe134"/><path d="m612.582 512.601c13.213 21.385 21.578 45.765 31.512 68.765 16.658 38.566 34.035 77.285 54.338 114.254-26.818-76.619-59.01-151.465-96.701-223.263-8.744.659-17.558 1.457-26.388 2.298 15.638 8.351 28.413 23.66 37.239 37.946z" fill="#fbe134"/><path d="m437.841 196.13c62.486-.331 125.031-2.273 187.458-4.98 30.377-1.315 59.523-2.112 88.813 7.636 22.768 7.576 35.266 29.563 48.789 47.899 17.654 23.935 34.697 48.323 51.566 72.816.031.047.066.094.1.142-12.375-20.807-24.928-41.504-37.848-61.965-28.951-45.331-42.139-76.814-102.691-76.331-85.337-.153-170.599 7.969-256.062 5.298-27.559 1.232-72.809-3.13-105.74 4.715-4.742 1.129-8.971 2.503-12.704 4.183 13.187-2.334 26.985-2.694 39.651-3.384 32.832-1.792 65.789 4.147 98.668 3.971z" fill="#fbe134"/><g fill="#ef6200"><path d="m921.936 637.822c3.596-5.922 6.221-11.1 4.998-15.096-14.896 22.545-39.676 38.394-65.928 44.263-20.617 4.612-40.951-2.491-60.221-9.222-6.516-2.277-12.773-5.089-19.002-7.99 46.106 35.674 108.555 40.041 140.153-11.955z"/><path d="m703.588 318.516c9.838 13.8 18.357 28.967 29.645 41.666 32.732 33.64 38.48 12.723 32.074-16.856.135 5.426.227 10.852.123 16.265-.639 33.251-37.67-11.925-42.148-18.32-10.162-14.506-20.424-28.901-31.855-42.443-3.377-4-8.479-7.787-13.229-7.031 8.726 2.641 21.207 20.679 25.39 26.719z"/><path d="m485.702 389.169c1.904-.639 3.066-1.738 3.82-3.095-.11.007-.225.025-.336.029-10.479.317-12.041-11.086-12.564-18.987-1.037-15.59-1.41-31.196-1.293-46.815.117-15.771.791-31.535 1.65-47.282.447-8.189.26-16.93 1.334-25.336-7.459 14.022-6.15 31.524-7.904 46.97-1.33 21.646-1.275 43.373.104 65.016.921 10.495-.777 32.012 15.189 29.5z"/><path d="m645.483 674.731c1.314-2.196 2.4-4.153 3.273-5.921-16.035 15.17-33.857 27.803-56.306 33.543-19.904 5.09-40.9-.016-59.82-6.496-12.154-4.164-24.02-9.037-35.234-15.143 1.34 1.363 2.893 2.742 4.598 4.133 46.519 37.969 111.307 43.598 143.489-10.116z"/><path d="m450.802 389.347c4.07-3.56 2.756-9.653.295-14.185-4.412 6.029-10.928 10.038-19.719 12.955-11.309 3.751-23.836 5.093-35.647 6.276-11.673 1.169-16.147-2.984-20.526-11.88-3.786-7.697-7.072-15.655-10.37-23.57-13.974-33.543-25.565-68.144-39.595-101.658-3.859 1.173-6.951 3.643-5.104 8.266 10.26 23.339 19.969 46.916 29.707 70.478 7.877 18.491 14.914 37.377 22.98 55.773 6.035 12.746 27.986 9.427 39.004 7.792 12.818-2.755 27.402-3.996 38.975-10.247z"/><path d="m495.235 270.763c13.576-1.219 39.71 50.424 46.416 58.972.606 1.63.836 3 .908 4.254.742-2.026.634-4.857-.873-8.732-3.047-7.84-31.881-63.144-46.451-54.494z"/><path d="m666.237 344.201c-1.941 6.779-3.883 13.57-5.484 20.503-.836 3.632-1.873 7.126-3.375 10.551-4.586 10.452-14.68 4.405-20.148-.169-6.506-5.446-11.473-13.202-16.789-19.761-13.756-16.966-24.552-36.273-35.492-55.102-5.654-9.734-11.537-19.334-17.164-29.086-5.453-9.454-11.706-19.827-12.977-30.833-1.702 1.628-2.738 4.187-2.447 7.355.57 6.154 4.469 11.754 7.346 17.056 23.99 41.171 46.166 85.933 81.207 118.869 20.242 15.925 22.352-19.229 24.414-32.073.328-2.433.61-4.873.909-7.31z"/></g><path d="m863.848 619.936c17.443-1.707 35.461-3.158 53.529-3.738-1.604-.403-3.375-.764-5.453-1.047-33.855-4.623-91.766.441-126.525 9.773-20.744 5.572-21.4 10.514-16.303 15.473 7.971-3.764 16.633-6.381 24.486-8.602 22.856-6.46 46.686-9.552 70.266-11.859z" fill="#facb1a"/><path d="m635.748 652.688c-1.436-.199-2.941-.391-4.598-.57-34.176-3.727-88.812 1.262-122.261 10.193-14.586 3.889-17.525 8.582-15.072 13.66 28.637-10.143 59.264-15.473 89.072-19.294 17.426-2.234 35.121-3.548 52.859-3.989z" fill="#facb1a"/><path d="m734.979 752.107c-10.424-16.408-12.986-39.299-18.668-57.676-10.121-32.73-21.553-65.094-34.783-96.701-9.988-23.865-20.506-47.519-31.32-71.022-8.654-18.794-16.971-38.537-27.84-56.302-4.434.389-8.867.753-13.299 1.153 49.35 95.315 90.254 195.426 120.771 298.368 6.102-.967 12.197-1.949 18.299-2.916-4.893-4.274-9.418-9.014-13.16-14.904z" fill="#ff564d"/><path d="m314.505 796.76c-4.35-8.4-8.6-16.858-11.725-25.785-7.906-22.572-9.297-44.307-7.731-67.953 1.69-25.572 5.597-50.961 11.794-75.824 4.324-17.352 10.568-33.676 17.387-49.92-40.06 51.525-39.578 124.096-41.551 186.965 37.456 91.079 27.353 74.843 31.826 32.517z" fill="#ff564d"/><path d="m257.278 660.545c-12.035-31.495-18.188-63.338-17.621-98.455.609-37.853 8.711-72.99 25.626-105.762-18.778 19.829-28.78 46.932-30.944 74.527-4.027 35.116-3.08 70.827-2.315 106.16 8.062 20.921 16.233 41.798 24.532 62.626-.405-12.807-.212-25.944.722-39.096z" fill="#ff564d"/><path d="m886.369 445.166c-2.105-3.794-4.23-7.578-6.342-11.369-1.514.38-3.012.733-4.453 1.061-13.992 3.198-28.604 3.409-42.875 4.295-25.148 1.563-50.291 3.225-75.43 4.952-52.813 3.629-105.598 7.623-158.345 12.064-44.412 3.74-88.809 7.769-133.104 12.718-15.664 1.75-31.311 3.659-46.912 5.89-17.109 2.444-35.785 6.701-52.609 2.275 1.955 4.842 3.887 9.689 5.847 14.529 170.495-24.014 342.344-37.277 514.223-46.415z" fill="#ff564d"/><path d="m204.553 514.042c-13.584-28.344-23.484-58.288-24.746-90.142-1.604-40.528 15.578-73.61 34.068-107.266-37.881 36.005-49.097 94.266-45.715 145.686 51.079 138.649 31.631 110.328 36.393 51.722z" fill="#ff564d"/><path d="m1045.987 954.443c-14.406 6.289-35.486 7.496-45.02 8.938-17.488 2.645-34.951 5.484-52.408 8.334-43.916 7.164-87.781 14.661-131.633 22.217-85.061 14.654-170.053 29.709-255.015 44.926-18.016 3.227-36.033 6.455-54.045 9.701-11.684 2.104-23.372 4.016-35.256 4.513-30.133 1.259-51.465-13.784-68.803-37.171-30.381-40.981-45.639-96.297-41.213-146.98 3.31-37.913 9.412-80.826 32.497-112.219-4.44 3.424-8.702 7.082-12.593 11.163-34.432 36.118-42.576 90.276-39.167 138.74 9.892 22.255 19.907 44.452 30.245 66.499 13.811 27.938 26.049 60.011 53.108 77.809 28.288 17.396 63.253 7.967 93.603 2.487 166.601-29.916 333.638-58.218 501.011-82.995 6.14-1.393 23.095-7.555 24.689-15.962z" fill="#ff564d"/><path d="m147.089 323.89c-9.047-21.285-14.479-43.396-11.984-68.265 2.32-23.13 10.998-50.071 25.049-71.276-10.307 9.951-18.813 21.96-25.123 35.266-24.785 49.72-10.803 104.942 5.113 154.991.306-16.849 2.579-34.08 6.945-50.716z" fill="#ff564d"/><path d="m324.624 752.537c9.893-25.895 28.589-52.068 64.367-67.697-18.666-39.723-36.545-79.826-53.672-120.25-1.877 1.896-3.664 3.838-5.404 5.807 4.834 6.7 7.439 14.988 10.375 22.658 4.117 10.76 9.121 21.232 13.867 31.727 5.83 12.895 13.303 25.82 16.57 39.631 3.737 15.791-10.045 25.719-18.855 36.389-12.354 14.961-21.774 32.811-27.248 51.735z" fill="#fbc471"/><path d="m158.341 292.528c12.256-26.114 31.035-48.612 57.465-62.567-6.15-23.031-11.711-46.201-16.561-69.511-3.83 1.264-7.541 2.766-11.139 4.464 5.002 6.411 7.279 16.244 8.873 23.123 3.752 16.19-2.363 30.42-10.895 43.809-12.585 19.748-23.812 37.472-27.743 60.682z" fill="#fbc471"/><path d="m412.057 460.36c35.21-5.316 70.762-9.099 105.596-13.47 79.771-10.011 159.736-18.619 239.791-26.053-67.221 4.542-134.383 9.959-201.44 16.474-65.625 6.375-131.169 13.777-196.47 22.93 1.185 2.988 2.403 5.961 3.6 8.945 11.063-2.341 22.184-4.513 33.393-6.377 5.167-.859 10.345-1.667 15.53-2.449z" fill="#fbc471"/><path d="m762.256 725.67c-17.012-43.17-34.736-86.069-52.791-128.816 4.23 12.35 8.453 24.703 12.629 37.068 14.621 43.297 28.146 87.22 43.664 130.281 3.506-.563 7.014-1.105 10.518-1.675-4.428-12.403-9.211-24.609-14.02-36.858z" fill="#fbc471"/><path d="m318.339 523.761c-11.334-27.75-22.318-55.641-32.912-83.67-3.348 2.008-6.482 4.229-9.492 6.575 2.936 4.178 5.262 8.731 7.419 13.66 4.788 10.944 10.726 21.272 15.138 32.401 8.949 22.583-.74 37.541-13.498 55.569-10.285 14.53-16.875 31.558-20.51 48.903-1.995 9.512-3.792 21.062-3.35 31.936 7.308-40.682 24.041-79.047 57.205-105.374z" fill="#fbc471"/><path d="m270.145 399.05c-11.955-32.794-23.4-65.863-33.926-99.211-3.242 1.855-6.318 3.868-9.297 5.97 5.101 4.794 7.83 13.899 9.782 19.199 2.779 7.542 5.972 14.911 8.745 22.457 4.778 13.002 6.9 26.586 4.378 40.298-2.037 11.066-10.802 20.202-17.259 28.96-11.504 15.608-18.818 34.83-21.396 53.932-.302 2.228-.684 5.327-.925 8.765 1.555-5.99 3.449-12.023 5.783-17.996 11.25-25.889 31.756-45.815 54.115-62.374z" fill="#fbc471"/><path d="m418.27 913.43c-9.928 17.92-13.5 38.334-10.396 58.232.098-44.855 32.756-90.363 72.438-108.74-22.313-39.213-43.188-79.234-63.164-119.688-2.425 1.117-4.764 2.395-7.1 3.672 6.713 7.482 10.869 17.27 15.459 26.496 7.982 16.045 15.653 32.248 23.672 48.275 3.494 6.988 6.971 13.85 9.096 21.406 3.361 11.957-3.705 21.043-11.104 29.441-10.92 12.396-20.897 26.46-28.901 40.906z" fill="#fbc471"/><path d="m1051.205 741.809c-22.311 10.148-48.619 12.8-72.389 17.84-73.684 15.619-147.387 31.203-221.502 44.674-66.086 12.01-132.482 22.355-199.101 30.924-15.248 1.961-30.557 4.166-45.891 1.83-19.322-2.948-31.982-17.463-42.529-32.633-15.326-22.043-25.98-47.334-37.348-71.553-50.338-107.27-97.633-216.373-137.656-327.936-19.186-53.479-36.543-107.58-53.416-161.825-6.616-21.272-21.156-60.983-13.99-87.974-5.718.533-11.416 1.201-17.004 2.357 9.367 44.872 21.652 89.119 35.283 132.873 32.455 104.3 72.352 206.592 116.15 306.71 38.959 89.039 81.072 177.035 129.258 261.493 23.627-8.126 49.188-8.745 73.973-12.032 36.519-4.846 72.884-10.863 109.173-17.205 118.006-20.487 236.227-45.725 353.455-67.363 37.17-6.582 58.514-4.441 49.1-43.502-4.851 9.755-13.157 17.677-25.566 23.322z" fill="#ff9750"/><path d="m225.075 559.826c-5.768-16.799-8.871-34.438-9.57-52.164-.395-9.957.438-19.451 2.186-28.635-13.295 44.96-9.26 102.851 7.15 139.226.169-19.204-.403-38.876.234-58.427z" fill="#ff9750"/><path d="m330.657 756.055c-11.725 30.793-12.865 66.277-10.01 98.626 5.01 11.663 10.072 23.306 15.176 34.927-.047-6.234.066-12.472.467-18.698.287-6.265.898-12.581 1.785-18.889-12.41-29.257-13.82-63.73-7.418-95.966z" fill="#ff9750"/><path d="m160.891 440.688c.231-14.699 1.686-29.495 4.547-43.986-5.622-14.455-9.525-29.563-11.273-44.517-1.477-12.619-.525-24.436 1.705-35.951-13.065 40.444-11.309 86.756 5.021 124.454z" fill="#ff9750"/><path d="m949.965 928.459c13.793-3.225 35.752-5.951 35.494-24.168-.094-6.67-2.082-11.971-5.25-16.238-.035.228-.094.447-.131.676-.832 5.169.018 12.15-2.547 16.867-3.961 7.273-15.766 10.109-22.91 12.43-145.252 38.437-295.854 53.686-443.841 78.609-26.699 4.119-54.049 7.218-80.531 13.018 2.184 2.875 4.707 5.43 7.475 7.707 112.07-17.424 224.017-35.742 335.744-55.219 58.933-10.278 118.218-20.057 176.497-33.682z" fill="#ff9750"/><path d="m277.897 709.184c-7.17-18.529-10.779-38.779-11.654-57.665-.258-5.591-.104-11.097.243-16.565-7.271 40.385-5.239 83.531 9.591 113.058.459-12.663.96-25.694 1.82-38.828z" fill="#ff9750"/><path d="m671.489 161.431c-34.684 1.36-91.687 3.974-147.429 5.001-79.349 1.459-155.97-.706-167.939-.942-19.83-.394-40.717.132-59.475 7.25-17.632 6.688-24.861 18.945-26.346 33.368 6.135-17.241 25.768-28.032 70.813-29.824 91.641-3.249 183.502 1.174 275.144-5.451 126.271-9.332 130.516 14.762 191.602 115.323 78.674 131.241 151.83 266.129 221.389 402.28 0-5.694-.432-13.396-7.666-30.189-13.215-30.686-92.088-177.882-155.596-293.086-25.02-45.378-67.947-118.262-89.205-153.129-24.324-39.888-50.953-52.73-105.292-50.601z" fill="#ff9750"/><path d="m332.45 557.801c-3.844-9.134-7.648-18.284-11.416-27.449-2.287 1.839-4.502 3.764-6.664 5.752 12.095 13.033-1.334 32.148-8.352 45.637-7.125 13.682-13.104 27.742-16.805 42.747-1.828 7.411-2.732 15.081-3.216 22.786 7.428-33.592 20.931-65.014 46.453-89.473z" fill="#ffc9a1"/><path d="m282.895 433.465c-3.475-9.194-6.875-18.425-10.272-27.667-3.124 2.334-6.202 4.74-9.222 7.218 7.746 17.823-15.338 47.132-21.994 61.404-3.838 8.232-6.773 16.908-8.269 25.736 1.417-5.042 3.044-10.034 4.97-14.958 9.098-22.055 25.246-38.658 44.787-51.733z" fill="#ffc9a1"/><path d="m414.161 737.199c-7.619-15.293-14.973-30.717-22.285-46.16-2.891 1.246-5.697 2.66-8.477 4.121 9.379 10.402 11.549 28.52 5.691 40.094-3.85 7.607-9.639 14.293-14.436 21.307-6.025 8.816-11.014 18.42-15.682 28.004-4.34 8.916-8.135 18.412-11.117 28.219 12.027-32.577 33.587-61.061 66.306-75.585z" fill="#ffc9a1"/><path d="m217.663 236.845c-4.801 2.712-9.327 5.741-13.633 9.001 5.932 6.206 9.453 14.828 11.732 23.271 4.645 17.184-4.451 33.413-12.113 48.245 8.889-9.485 19.09-17.697 30.447-24.277-5.81-18.654-11.301-37.403-16.433-56.24z" fill="#ffc9a1"/><path d="m798.139 770.405c-54.828 5.617-276.546 58.418-303.917 13.11-81.322-151.799-146.451-312.428-202.789-475.06-8.516-29.536-19.68-56.223-22.666-77.776-1.066 8.5.412 17.874 1.851 25.529 5.003 26.631 15.556 52.724 24.726 78.074 24.838 68.665 48.806 137.499 77.201 204.811 27.347 64.822 54.672 130.337 85.756 193.458 7.221 14.662 15.014 29.02 23.049 43.246 4.873 8.627 10.501 16.425 18.514 22.363 21.002 15.572 54.652 16.373 79.387 14.029 91.509-8.668 182.568-25.166 273.007-41.23 34.496-6.129 69.004-12.339 103.318-19.432 15.559-3.213 30.109-8.211 44.234-15.664 8.338-4.398 28.441-16.296 30.984-28.942-21.606 38.682-200.118 55.594-232.655 63.484z" fill="#ffc9a1"/><path d="m1012.131 776.568c-62.781 11.682-125.375 24.376-188.059 36.539-79.646 15.453-159.428 30.84-239.765 42.311-30.662 5.656-62.632 4.59-92.277 14.855-2.054.795-4.027 1.758-6.021 2.684 4.14 5.701 6.53 12.56 7.507 19.611.109 1.082.125 2.16.195 3.24 92.084-27.658 187.781-41.231 283.082-53.977 71.631-9.58 143.117-20.867 214.93-28.512 5.963-12.786 12.799-25.137 20.408-36.751z" fill="#bebebe"/><path d="m821.758 919.832c-34.506 5.732-68.932 11.969-103.408 17.881-45.387 7.785-90.82 15.369-136.388 22.031-36.363 5.318-72.924 10.803-109.705 6.778-6.84 10.306-14.836 19.795-23.342 28.102 78.539-12.563 157.226-23.804 235.748-36.444 91.125-15.835 183.922-26.766 272.703-53.255 3.506-.974 8.117-3.827 9.813-4.542.473-6.004 1.289-11.98 2.344-17.908.344-1.921.805-3.842 1.195-5.764-14.281 9.93-30.377 16.013-46.922 21.322-33.143 10.639-67.788 16.104-102.038 21.799z" fill="#efefef"/><path d="m481.58 892.133c-22.491 16.215-40.497 40.756-44.571 67.689-1.396 9.232-1.387 19.678.533 29.65 25.51-22.409 51.295-65.984 44.038-97.339z" fill="#999"/></g></g></svg>