<svg id="Layer_1" enable-background="new 0 0 66 66" viewBox="0 0 66 66" xmlns="http://www.w3.org/2000/svg"><g><g><g><path d="m31.39 14.47c-2.95 1.2-6.32-.22-7.52-3.17-.7-1.72-.51-3.58.36-5.07.62-1.07 1.58-1.95 2.82-2.46 2.95-1.2 6.32.22 7.52 3.18.14.35.25.71.32 1.08.51 2.64-.9 5.37-3.5 6.44z" fill="#f05360"/></g></g><g><g><path d="m31.39 14.47c-2.95 1.2-6.32-.22-7.52-3.17-.7-1.72-.51-3.58.36-5.07-.19.5-.34 1.01-.38 1.54-.05.72.14 1.49.67 1.97.53.49 1.43.59 1.95.1.29-.27.47-.7.86-.79.61-.17 1.06.62 1.67.77.55.15 1.09-.25 1.49-.65.4-.41.81-.88 1.37-.96.47-.07.94.17 1.42.24.57.09 1.16-.08 1.62-.43.5 2.65-.91 5.38-3.51 6.45z" fill="#ef4050"/></g></g><g><g><path d="m29.23 15.13c-2.38 0-4.63-1.42-5.58-3.75-.7-1.73-.57-3.65.37-5.28.46-.8 1.11-1.49 1.87-2 .11-.07.26-.04.33.07s.04.26-.07.33c-.7.47-1.3 1.11-1.72 1.84-.87 1.5-.99 3.27-.34 4.86 1.15 2.82 4.39 4.19 7.21 3.04 2.44-1 3.85-3.6 3.35-6.18-.07-.34-.17-.69-.31-1.03-.05-.12.01-.26.13-.31s.26.01.31.13c.15.38.26.75.33 1.12.54 2.81-.99 5.63-3.64 6.71-.73.31-1.49.45-2.24.45z" fill="#010101"/></g></g><g><g><circle cx="29.22" cy="9.12" fill="#fff" r="2.91"/></g></g><g><g><path d="m30.31 12.06c-.09 0-.18-.06-.22-.15-.05-.12.01-.26.13-.31 1.36-.56 2.02-2.12 1.47-3.48-.56-1.36-2.12-2.02-3.48-1.47-.67.27-1.19.79-1.47 1.46-.05.12-.19.18-.31.13s-.18-.19-.13-.31c.32-.79.94-1.4 1.73-1.72 1.61-.66 3.45.12 4.11 1.73.65 1.61-.12 3.45-1.73 4.11-.03 0-.06.01-.1.01z" fill="#010101"/></g></g><g><g><path d="m44.66 44.42c-11.11 4.52-21.17 5.6-22.46 2.42-.33-.83-.05-1.86.75-3.01.54-.78 1.33-1.62 2.31-2.49l-3.91-9.61c-1.13-2.79-1.47-5.71-1.1-8.5.76-5.8 4.53-11.03 10.34-13.39.41-.17.83-.32 1.24-.44 6.59-2.11 13.69.09 17.98 5.22 1.09 1.31 2 2.8 2.67 4.46l3.35 8.23c.33.8 1.09 1.35 1.95 1.36 2.48.05 4.15.65 4.63 1.83 1.3 3.17-6.65 9.41-17.75 13.92z" fill="#ffce3b"/></g></g><g><g><path d="m49.81 14.61c-.07.19-.16.38-.28.56-.41.64-1.16 1.1-1.92 1.01-.89-.12-1.6-.95-2.49-.95-.85 0-1.5.72-2.05 1.36-.56.64-1.28 1.33-2.12 1.2-.69-.1-1.18-.72-1.44-1.36-.25-.65-.33-1.35-.59-1.99s-.76-1.26-1.45-1.34c-.54-.07-1.06.2-1.58.34-1.36.36-2.92-.25-3.67-1.44-.49-.76-.62-1.73-.4-2.61 6.61-2.11 13.7.09 17.99 5.22z" fill="#fab815"/></g></g><g><g><path d="m40.66 21.77c-.26 0-.51-.04-.74-.13-1.16-.43-1.62-1.74-1.97-2.93-.3-1.02-.77-2.22-1.78-2.47-.5-.12-1.01.02-1.56.18-.34.09-.7.19-1.06.23-1.75.17-3.2-1.2-3.81-2.53-.58-1.25-.65-2.64-.65-3.71 0-.13.11-.24.24-.24s.24.11.24.24c0 1.02.07 2.34.61 3.51.54 1.18 1.82 2.39 3.33 2.25.32-.03.65-.12.98-.21.58-.16 1.18-.33 1.8-.18 1.27.31 1.82 1.74 2.13 2.8.33 1.13.72 2.26 1.67 2.62.62.23 1.42.05 2.13-.47.44-.32.81-.71 1.2-1.13.19-.2.38-.4.57-.59.8-.77 1.55-1.18 2.31-1.23.69-.06 1.34.18 1.96.4.28.1.58.21.87.28.95.25 2.01.14 2.98-.29.12-.05.26 0 .32.12.05.12 0 .26-.12.32-1.07.48-2.23.59-3.29.31-.31-.08-.61-.19-.91-.3-.6-.22-1.17-.42-1.76-.38-.64.05-1.3.41-2.01 1.1-.19.19-.37.38-.56.58-.39.41-.79.84-1.26 1.19-.61.43-1.26.66-1.86.66z" fill="#fab815"/></g></g><g><g><path d="m55.46 31.47c-.43.21-.92 1.1-1.24 1.47-.46.53-.92 1.06-1.43 1.55-.78.76-1.84.92-2.84 1.33-2.68 1.12-5.26 2.49-7.96 3.58-5.12 2.06-10.58 3.11-16 4.14-1 .19-2.04.38-3.04.29.54-.78 1.33-1.62 2.31-2.49l-3.91-9.61c-1.13-2.79-1.47-5.71-1.1-8.5.15.78.45 1.53.9 2.19 1.09 1.58 3 2.58 4.93 2.56 1.17-.01 2.38-.37 3.5 0 1.94.64 2.71 3.13 4.59 3.92 1.38.58 2.98.08 4.31-.62s2.59-1.62 4.06-1.91c2.2-.43 4.38.6 6.44 1.48 2.06.87 4.47 1.6 6.48.62z" fill="#fab815"/></g></g><g><g><path d="m31.92 48.45c-.11 0-.22-.08-.24-.2-.02-.13.07-.26.2-.28 3.84-.66 8.23-1.96 12.69-3.78 5.35-2.17 10.13-4.81 13.47-7.43 3.22-2.52 4.73-4.78 4.16-6.19-.43-1.04-1.96-1.62-4.41-1.68-.96-.02-1.81-.62-2.18-1.52l-3.34-8.23c-1.66-4.1-4.83-7.3-8.91-9.02s-8.58-1.75-12.68-.08c-2.6 1.06-4.9 2.76-6.65 4.93-.08.1-.23.12-.34.04-.1-.08-.12-.23-.04-.34 1.8-2.23 4.17-3.99 6.84-5.07 4.22-1.72 8.85-1.69 13.04.08 4.2 1.77 7.45 5.07 9.16 9.28l3.34 8.23c.29.72.98 1.2 1.74 1.22 2.66.06 4.34.74 4.85 1.97.67 1.65-.86 4.04-4.31 6.75-3.37 2.65-8.2 5.31-13.59 7.5-4.49 1.83-8.91 3.15-12.79 3.81.01.01 0 .01-.01.01z" fill="#010101"/></g></g><g><g><path d="m29.65 38.11c6.83-4.58 14.73-7.76 22.87-8.97-8.01 1.86-15.71 4.96-22.87 8.97z" fill="#eea820"/></g></g><g><g><path d="m51.1 38.87c-2.15 1.15-4.64 2.32-7.32 3.41-.65.27-1.3.52-1.94.75-8.5 3.22-15.66 4.35-16.42 2.49-.31-.75.48-1.89 2.08-3.22 2.65-2.2 7.52-4.91 13.33-7.27.3-.12.59-.24.89-.35 1.37-.55 2.72-1.04 4.02-1.47 4.09-1.37 7.69-2.18 10.14-2.31 1.84-.09 3.03.18 3.31.88.58 1.44-2.75 4.24-8.09 7.09z" fill="#fab815"/></g></g><g><g><path d="m49.2 37.08c-.27.14-.54.28-.81.42-1.62.83-3.42 1.67-5.36 2.46-.15.06-.32.13-.47.19-.39.15-.79.31-1.17.45-7.16 2.72-13.21 3.66-13.84 2.09-.04-.11-.06-.24-.04-.38 2.65-2.2 7.52-4.91 13.33-7.27.3-.12.59-.24.89-.35.03-.02.08-.03.11-.04 1.25-.5 2.49-.95 3.68-1.35.08-.03.15-.05.23-.08 4.09-1.37 7.69-2.18 10.14-2.31.05.06.09.13.13.21.48 1.19-2.33 3.56-6.82 5.96z" fill="#eea820"/></g></g><g><g><path d="m28.06 46.66c-1.49 0-2.56-.3-2.86-1.04-.35-.85.38-2.02 2.15-3.49 2.78-2.3 7.78-5.03 13.4-7.31l.22-.09c.23-.09.45-.18.68-.27 1.34-.54 2.7-1.03 4.03-1.47 4.06-1.36 7.68-2.19 10.2-2.32 2.03-.11 3.23.24 3.55 1.03.38.93-.53 2.26-2.71 3.93-.11.08-.26.06-.34-.04-.08-.11-.06-.26.04-.34 1.9-1.46 2.83-2.69 2.56-3.37-.23-.56-1.32-.82-3.08-.73-2.47.13-6.05.94-10.07 2.29-1.32.44-2.67.93-4.01 1.46-.23.09-.45.18-.68.27l-.22.09c-5.57 2.26-10.53 4.96-13.27 7.23-1.55 1.28-2.27 2.33-2.01 2.94.43 1.06 4.16 1.2 11.32-.98.13-.04.26.03.3.16s-.03.26-.16.3c-3.21.99-6.67 1.75-9.04 1.75z" fill="#010101"/></g></g><g><g><path d="m18.1 20.46c-.01 0-.01 0-.02 0-.13-.01-.23-.13-.22-.26.17-1.93.86-3.77 1.99-5.34.08-.11.23-.13.34-.05s.13.23.05.34c-1.08 1.5-1.74 3.27-1.9 5.11-.02.11-.12.2-.24.2z" fill="#010101"/></g></g><g><g><path d="m15.17 20.81c-.13 0-.24-.1-.24-.24-.07-3.55 1.46-7.09 4.1-9.47.1-.09.25-.08.34.02s.08.25-.02.34c-2.54 2.28-4.01 5.69-3.94 9.1 0 .14-.1.25-.24.25z" fill="#010101"/></g></g><g><g><path d="m11.95 21.46c-.13 0-.24-.1-.24-.23-.16-4.97 1.93-10.1 5.58-13.73.09-.09.25-.09.34 0s.09.25 0 .34c-3.56 3.53-5.59 8.53-5.44 13.37 0 .13-.1.24-.24.25z" fill="#010101"/></g></g><g><g><path d="m52.52 44.6c-.44 1.55-1.57 2.88-3.18 3.53-2.8 1.14-5.98-.19-7.11-3-.37-.89-.48-1.83-.36-2.72.08-.64.26-1.26.56-1.81.04-.07.08-.14.12-.21.26-.47.6-.9 1.01-1.28l-1.72-4.22c1.26-.5 2.49-.95 3.68-1.35l1.67 4.09c.4-.01.81.03 1.2.1.71.15 1.39.43 1.99.85.86.57 1.54 1.4 1.96 2.44.48 1.19.52 2.45.18 3.58z" fill="#6695ce"/></g></g><g><g><path d="m52.52 44.6c-.44 1.55-1.57 2.88-3.18 3.53-2.8 1.14-5.98-.19-7.11-3-.37-.89-.48-1.83-.36-2.72.08-.64.26-1.26.56-1.81-.1.47-.16.95-.08 1.42.12.7.66 1.39 1.37 1.44.42.03.84-.15 1.24-.04.51.15.76.7.95 1.2.2.49.47 1.05 1 1.16.44.09.87-.17 1.19-.48.32-.3.62-.67 1.03-.83.79-.33 1.68.17 2.53.22.31.03.59-.01.86-.09z" fill="#4d86c5"/></g></g><g><g><path d="m25.46 42.91c-.25.29-.11.76.28.82.77.12 1.48.63 1.95 1.33.69 1.01.76 2.37.37 3.54-.38 1.17-1.17 2.16-2.08 3-.9.84-1.92 1.54-2.88 2.29-.6.47-1.23.97-1.86 1.51-2.26 1.92-4.57 4.24-5.81 6.9-.41.89-1.32 1.46-2.29 1.32-3.82-.56-6.87-2.19-9.21-4.79-.65-.72-.62-1.94-.03-2.72.04-.06.09-.13.13-.19.85-1.2 1.36-2.67 1.61-4.16.03-.13.05-.26.07-.4.27-1.8.25-3.63.33-5.45.02-.45.05-.9.09-1.36.21-2.27.78-4.61 2.28-6.32.65-.74 1.53-1.36 2.5-1.37.98-.01 1.99.83 1.88 1.8.44-.72.8-1.24 1.44-1.81.63-.57 1.42-.99 2.27-1.03s1.74.36 2.16 1.1c.44-.54 1.17-.81 1.86-.75.7.06 1.56.38 2.11 1.4 1.24-2.11 2.86-4 4.77-5.54.64-.52 1.34-1.01 2.15-1.17.81-.15 1.76.12 2.17.83.52.9.01 2.04-.52 2.94-1.76 2.99-3.53 5.7-5.74 8.28z" fill="#f47948"/></g></g><g><g><path d="m11.87 47.71c-.19.33-.62.42-.99.48-.35.06-.7.12-1.01.28-.31.17-.58.44-.66.78-.15.71.54 1.47.25 2.13-.16.35-.55.54-.93.64-.95.26-2 .16-2.89-.27.03-.13.05-.26.07-.4.27-1.8.25-3.63.33-5.45 1.48-.04 2.96.07 4.42.32.4.07.81.15 1.13.41s.49.74.28 1.08z" fill="#f26735"/></g></g><g><g><path d="m8.54 53.91c-1.12 0-2.23-.17-3.29-.51-.13-.04-.2-.18-.16-.3.04-.13.18-.2.3-.16 1.07.34 2.19.51 3.32.49.96-.02 1.6-.27 1.9-.74.21-.33.25-.74.29-1.17.01-.12.02-.24.04-.36.11-.82.49-1.38 1.04-1.54.34-.1.66-.03.98.04.14.03.28.06.43.08.84.08 1.71-.65 1.85-1.58.13-.85-.31-1.81-1.1-2.43-.67-.52-1.61-.83-2.71-.9-.78-.05-1.58.01-2.36.06-.22.02-.44.03-.66.05-.74.04-1.54.06-2.32-.06-.13-.02-.22-.14-.2-.27s.14-.22.27-.2c.74.11 1.5.09 2.21.05.22-.01.44-.03.66-.05.79-.06 1.61-.12 2.42-.06 1.21.08 2.22.41 2.98 1 .93.73 1.43 1.86 1.28 2.88-.18 1.19-1.27 2.09-2.37 1.99-.16-.01-.32-.05-.48-.08-.27-.06-.52-.11-.74-.05-.52.15-.67.91-.7 1.14-.01.11-.03.23-.04.34-.04.47-.09.96-.37 1.39-.39.61-1.17.93-2.3.96-.05-.01-.11-.01-.17-.01z" fill="#f26735"/></g></g><g><g><path d="m21.23 55.4c-2.26 1.92-4.57 4.24-5.81 6.9-.41.89-1.32 1.46-2.29 1.32-3.82-.56-6.87-2.19-9.21-4.79-.65-.72-.62-1.94-.03-2.72.04-.06.09-.13.13-.19.46.82 1.24 1.47 2.13 1.74 1.24.37 2.69.02 3.62-.9.71-.7 1.28-1.78 2.27-1.84.74-.04 1.36.51 1.92 1.01.56.49 1.28.97 1.98.76.88-.26 1.19-1.44 2.03-1.79.79-.33 1.67.18 2.5.4.26.06.51.1.76.1z" fill="#f26735"/></g></g><g><g><path d="m13.43 63.88c-.11 0-.22-.01-.33-.02-3.8-.56-6.95-2.2-9.35-4.86-.7-.79-.72-2.12-.05-3.03l.13-.19c.82-1.16 1.39-2.7 1.64-4.45.2-1.3.24-2.65.28-3.95.03-.93.06-1.9.14-2.84.26-2.84 1.02-4.95 2.34-6.46.82-.93 1.77-1.45 2.68-1.45h.01c.6 0 1.23.28 1.65.74.17.19.29.39.37.61.33-.48.65-.88 1.12-1.3.73-.66 1.59-1.05 2.42-1.09.88-.04 1.71.33 2.2.95.48-.44 1.16-.67 1.85-.61.63.06 1.47.32 2.08 1.18 1.23-2.01 2.79-3.78 4.62-5.26.66-.53 1.39-1.05 2.25-1.22 1-.19 1.99.2 2.42.95.59 1.02.03 2.24-.52 3.18-2.08 3.54-3.8 6.02-5.75 8.3-.09.1-.24.11-.34.03-.1-.09-.11-.24-.03-.34 1.93-2.25 3.64-4.72 5.7-8.23.48-.83.98-1.89.52-2.7-.38-.67-1.26-.84-1.91-.72-.76.14-1.43.62-2.04 1.12-1.89 1.53-3.47 3.37-4.71 5.47-.04.08-.12.13-.21.12-.09 0-.17-.05-.21-.13-.52-.96-1.33-1.22-1.92-1.28-.64-.06-1.27.19-1.65.66-.05.06-.12.09-.21.09-.08-.01-.15-.05-.19-.12-.36-.62-1.14-1.01-1.94-.98-.72.03-1.47.37-2.12.96-.6.54-.94 1.01-1.39 1.75-.06.1-.18.14-.28.1-.11-.04-.17-.14-.16-.25.04-.33-.08-.67-.34-.95-.33-.36-.82-.58-1.29-.58h-.01c-1.04.01-1.9.81-2.32 1.29-1.25 1.42-1.97 3.45-2.22 6.18-.08.93-.11 1.89-.14 2.82-.04 1.32-.08 2.68-.28 4.01-.27 1.83-.87 3.44-1.73 4.66l-.13.19c-.54.73-.53 1.81.01 2.43 2.32 2.58 5.37 4.16 9.06 4.71.84.12 1.66-.35 2.04-1.18.35-.74.8-1.5 1.33-2.26.08-.11.23-.13.34-.06.11.08.13.23.06.34-.52.73-.96 1.46-1.29 2.18-.41.92-1.27 1.49-2.2 1.49z" fill="#010101"/></g></g><g><g><path d="m12.79 38.66c-.22.88-.72 1.59-1.49 2.09.23-.89.73-1.59 1.49-2.09z" fill="#eb562c"/></g></g><g><g><path d="m18.65 36.91c-.38 1.01-1.02 1.82-1.91 2.42.37-1.01 1.02-1.83 1.91-2.42z" fill="#eb562c"/></g></g><g><g><path d="m22.57 37.58c-.1.88-.49 1.62-1.18 2.19.11-.88.51-1.61 1.18-2.19z" fill="#eb562c"/></g></g><g><g><path d="m7.7 42.83c.37-.85 1.84-.81 2.16.06-.81-.25-1.34-.27-2.16-.06z" fill="#eb562c"/></g></g><g><g><path d="m12.78 41.87c.3-.98 1.96-.84 2.08.18-.74-.45-1.27-.5-2.08-.18z" fill="#eb562c"/></g></g><g><g><path d="m17.19 41.9c.68-.89 2.39-.39 2.47.74-.76-.68-1.46-.89-2.47-.74z" fill="#eb562c"/></g></g><g><g><path d="m20.87 43.12c.96-.46 2.28.51 2.13 1.56-.58-.8-1.17-1.24-2.13-1.56z" fill="#eb562c"/></g></g><g><g><g><path d="m41.58 7.73-1.42-3.71-.73 2.92c-.06.23-.3.37-.54.32-.23-.06-.38-.3-.32-.53l1.07-4.27c.05-.22.28-.38.54-.32.13.03.25.13.3.27l1.42 3.71.73-2.92c.06-.23.3-.38.54-.32.23.06.38.3.32.53l-1.07 4.27c-.06.23-.3.38-.53.32-.15-.03-.26-.13-.31-.27z" fill="#2c449c"/></g></g><g><g><path d="m43.86 5.83c.67-1.29 2.22-1.83 3.46-1.19s1.71 2.21 1.04 3.51c-.67 1.29-2.22 1.82-3.46 1.18-1.25-.64-1.71-2.21-1.04-3.5zm.78.4c-.45.86-.15 1.9.65 2.32.81.42 1.83.06 2.27-.8.45-.86.15-1.9-.66-2.32-.79-.42-1.81-.06-2.26.8z" fill="#2c449c"/></g></g><g><g><path d="m52.64 8.24c.19.15.23.43.08.62-.15.2-.44.22-.62.07l-.68-.54-2.46 3.1c-.15.19-.43.22-.62.07s-.22-.42-.07-.61l2.46-3.1-.69-.55c-.19-.15-.22-.42-.07-.62.15-.19.43-.22.61-.07z" fill="#2c449c"/></g></g><g><g><path d="m50.31 12.7 3.15-3.08c.17-.17.45-.17.62.01.17.17.17.45-.01.62l-3.15 3.08c-.17.17-.45.17-.62-.01-.17-.17-.16-.45.01-.62z" fill="#2c449c"/></g></g><g><g><path d="m57.03 13.16c.15.19.11.47-.08.62-.2.15-.48.11-.62-.08l-1.33-1.74-1.05.8 1.07 1.4c.15.19.11.47-.08.61-.19.15-.47.11-.61-.08l-1.07-1.4-1.4 1.07c-.19.15-.47.1-.62-.09s-.11-.47.08-.61l3.5-2.68c.19-.15.47-.11.61.08z" fill="#2c449c"/></g></g><g><g><path d="m59.42 18.37c-.08.04-.17.05-.27.04l-2.51-.35-1.84.94c-.21.11-.48.02-.59-.2-.11-.21-.02-.48.19-.59l1.84-.93 1.2-2.24c.04-.08.09-.14.17-.18.2-.1.48-.06.61.18.06.13.07.28 0 .41l-.97 1.81 2.03.29c.15.02.27.11.33.24.04.07.05.17.04.26-.01.14-.1.26-.23.32z" fill="#2c449c"/></g></g><g><g><path d="m55.91 21.7c-.23.08-.48-.04-.56-.27s.04-.48.26-.56c.23-.08.48.03.57.26s-.03.48-.27.57zm4.15-1.5-2.9 1.05c-.23.08-.48-.04-.56-.27s.04-.48.26-.56l2.9-1.05c.23-.08.48.04.56.26.08.23-.04.49-.26.57z" fill="#2c449c"/></g></g></g><g><g><path d="m27.94 32.59c-.27.28-.45.68-.38 1.07.07.4.39.7.69.97.24.22.55.46.87.37.22-.06.36-.25.49-.43.29-.4.58-.8.87-1.19.19-.27.4-.56.37-.89-.03-.4-.41-.7-.8-.78-.79-.17-1.57.32-2.11.88z" fill="#fff"/></g></g><g><g><path d="m26.03 35.45c.78-.13 1.56.64 1.42 1.42-.55-.55-.87-.87-1.42-1.42z" fill="#eb562c"/></g></g><g><g><path d="m23.82 38.25c.6-.25 1.33.23 1.33.89-.59-.27-.86-.45-1.33-.89z" fill="#eb562c"/></g></g><g><g><path d="m25.23 43.53c-.36 1.85-1.33 3.59-2.72 4.87.86-1.69 1.74-3.25 2.72-4.87z" fill="#eb562c"/></g></g><g><g><path d="m25.02 46.89c.93.46 1.35 1.79.86 2.7-.22-1.02-.45-1.75-.86-2.7z" fill="#eb562c"/></g></g><g><g><path d="m30.13 27.05c-.44 0-.84.21-1.12.55-.29.34-.47.81-.47 1.33 0-1.04-.71-1.88-1.58-1.88.44 0 .83-.21 1.12-.55.28-.34.46-.81.46-1.33 0 .52.18.98.47 1.33.28.34.68.55 1.12.55z" fill="#fff"/></g></g><g><g><path d="m13.63 54.78c-.44 0-.84.21-1.12.55-.29.34-.47.81-.47 1.33 0-1.04-.71-1.88-1.58-1.88.44 0 .83-.21 1.12-.55.28-.34.46-.81.46-1.33 0 .52.18.98.47 1.33.29.34.69.55 1.12.55z" fill="#fff"/></g></g><g><g><path d="m48.76 44.68c-.44 0-.84.21-1.12.55-.29.34-.47.81-.47 1.33 0-1.04-.71-1.88-1.58-1.88.44 0 .83-.21 1.12-.55.28-.34.46-.81.46-1.33 0 .52.18.98.47 1.33.29.34.69.55 1.12.55z" fill="#fff"/></g></g><g><g><path d="m31.79 28.93c-.26 0-.49.12-.66.33-.17.2-.28.48-.28.78 0-.61-.42-1.11-.93-1.11.26 0 .49-.12.66-.32s.27-.48.27-.78c0 .31.11.58.28.78.17.19.4.32.66.32z" fill="#fff"/></g></g><g><g><g><path d="m23.68 20.11c-.42-.15-.17-1.9 1.09-3.6s2.87-2.44 3.13-2.08c.29.38-.7 1.58-1.79 3.07-1.11 1.49-1.98 2.78-2.43 2.61z" fill="#fff"/></g></g><g><g><path d="m22.8 23.15c-.19-.03-.28-.56-.12-1.17.15-.61.48-1.04.67-.97s.18.58.04 1.15c-.15.57-.38 1.02-.59.99z" fill="#fff"/></g></g></g><g><g><g><path d="m49.48 40.65c-.12.2-.47.22-.96.17-.48-.05-1.15-.22-1.84-.49-.68-.27-1.26-.54-1.67-.79s-.68-.49-.65-.72.37-.4.92-.43 1.28.1 2.01.38c.72.28 1.31.62 1.74.98.4.36.57.71.45.9z" fill="#fff"/></g></g><g><g><path d="m51.12 42.38c-.19.07-.46-.18-.72-.5s-.44-.66-.32-.82.55-.04.88.37c.35.41.35.89.16.95z" fill="#fff"/></g></g></g><g><g><g><path d="m24.2 50.96c-.34-.33.09-1.31.53-2.42.47-1.11.82-2.1 1.29-2.11.22 0 .44.3.52.81.08.5.02 1.22-.27 1.93s-.74 1.26-1.15 1.57c-.4.3-.75.37-.92.22z" fill="#fff"/></g></g><g><g><path d="m22.51 52.37c-.1-.18.1-.48.42-.72s.67-.35.81-.21-.01.52-.37.79-.76.31-.86.14z" fill="#fff"/></g></g></g></g></svg>