<?xml version="1.0" encoding="utf-8"?>
<!-- Generator: Adobe Illustrator 24.3.0, SVG Export Plug-In . SVG Version: 6.00 Build 0)  -->
<svg version="1.1" id="Layer_1" xmlns="http://www.w3.org/2000/svg" xmlns:xlink="http://www.w3.org/1999/xlink" x="0px" y="0px"
	 viewBox="0 0 4800 2800" style="enable-background:new 0 0 4800 2800;" xml:space="preserve">
<style type="text/css">
	.st0{display:none;}
	.st1{display:inline;}
	.st2{clip-path:url(#SVGID_2_);}
	.st3{clip-path:url(#SVGID_4_);fill:none;stroke:#004C2F;stroke-width:0.9983;stroke-miterlimit:10;}
	.st4{display:none;fill:none;stroke:#000000;stroke-miterlimit:10;}
	.st5{fill:none;stroke:#009245;stroke-miterlimit:10;}
</style>
<g class="st0">
	<g class="st1">
		<defs>
			<rect id="SVGID_1_" x="-241.8" y="34.14" width="4791.8" height="2795.22"/>
		</defs>
		<clipPath id="SVGID_2_">
			<use xlink:href="#SVGID_1_"  style="overflow:visible;"/>
		</clipPath>
		<g class="st2">
			<defs>
				<rect id="SVGID_3_" x="-241.8" y="34.14" width="4791.8" height="2795.22"/>
			</defs>
			<clipPath id="SVGID_4_">
				<use xlink:href="#SVGID_3_"  style="overflow:visible;"/>
			</clipPath>
			<path class="st3" d="M-4354.06,5267.03L-756.04,422.31c0,0,1387.62-413.18,1819.9,767.85
				c432.29,1181.03,611.41,2089.78,3079.75-2104.12s2912.56-4611.86,2912.56-4611.86"/>
			<path class="st3" d="M-4164.9,5279.61l1538.31-2152.97c0,0,1918.19-2658.47,1932.12-2689.04c4.7-10.32,424.2-138.97,871.6-49.49
				c357.99,71.74,733.09,282.09,933.33,794.88c440.02,1126.85,681.19,2034.02,2807.74-1487.4
				c84.47-140.13,180.04-280.3,274.85-430.35c2495.93-3950.21,2903.76-4357.53,2936.52-4439.11"/>
			<path class="st3" d="M-3975.75,5292.19l1477.19-2152.3c0,0,1837.81-2625.85,1865.66-2686.99
				c9.4-20.64,419.08-150.09,858.44-60.93c352.64,71.84,723.09,282.4,931.51,783.86C1621.72,2293.79,1922.1,3224,3966.09-153.91
				c81.09-134.53,180.96-261.59,276.39-401.64C6764.69-4257.26,7137.44-4658.76,7202.96-4821.9"/>
			<path class="st3" d="M-3786.59,5304.77l1416.07-2151.63c0,0,1757.42-2593.23,1799.2-2684.95
				c14.1-30.96,413.95-161.22,845.28-72.37c347.28,71.94,713.32,282.72,929.7,772.85C1693.33,2277.84,2052.54,3230.98,4013.98-3.42
				c77.71-128.92,181.64-242.5,277.93-372.92c2545.92-3448.32,2886.16-3848.88,2984.44-4093.6"/>
			<path class="st3" d="M-3597.44,5317.35l1354.95-2150.96c0,0,1677.04-2560.61,1732.74-2682.91
				c18.8-41.28,408.83-172.35,832.12-83.81c341.92,72.04,703.77,283.02,927.89,761.83
				c515.08,1100.45,932.73,2076.46,2811.62-1014.43c74.33-123.32,182-222.99,279.47-344.21
				c2565.39-3190.26,2877.36-3594.56,3008.4-3920.85"/>
			<path class="st3" d="M-3408.29,5329.92l1293.83-2150.29c0,0,1596.65-2527.99,1666.28-2680.86
				c23.5-51.6,403.7-183.48,818.96-95.25c336.57,72.14,694.45,283.3,926.07,750.82c540.89,1091.77,1016.58,2090.61,2812.91-856.78
				c70.95-117.71,181.98-203.03,281.02-315.5c2578.62-2928.15,2868.56-3340.23,3032.36-3748.1"/>
			<path class="st3" d="M-3219.13,5342.5l1232.71-2149.62c0,0,1516.26-2495.38,1599.82-2678.82
				c28.2-61.92,398.58-194.61,805.8-106.69c331.21,72.24,685.35,283.55,924.26,739.81c567.13,1083.08,1100.43,2104.76,2814.2-699.13
				c67.57-112.11,164.72-202.05,282.56-286.78c2073.34-3076.84,2859.75-3085.9,3056.32-3575.35"/>
			<path class="st3" d="M-3029.98,5355.08l1171.59-2148.95c0,0,1435.88-2462.76,1533.36-2676.77
				c32.9-72.23,393.45-205.74,792.64-118.14c325.86,72.34,676.47,283.76,922.44,728.79
				c593.79,1074.35,1184.27,2118.9,2815.49-541.47c64.2-106.5,162.36-185.94,284.1-258.07
				c2007.51-2890.66,2850.95-2831.58,3080.28-3402.6"/>
			<path class="st3" d="M-2840.82,5367.66l1110.47-2148.28c0,0,1355.49-2430.14,1466.9-2674.73
				c37.6-82.55,388.33-216.87,779.48-129.58c320.5,72.44,667.81,283.9,920.63,717.78c620.9,1065.55,1268.12,2133.05,2816.79-383.82
				c60.82-100.9,160-169.84,285.65-229.35C6480.77-2184.8,7381.24-2057.57,7643.33-2710.16"/>
			<path class="st3" d="M-2651.67,5380.24l1049.35-2147.61c0,0,1275.11-2397.52,1400.45-2672.69
				c42.3-92.87,383.21-228,766.32-141.02c315.15,72.54,659.36,283.98,918.82,706.76c648.45,1056.64,1351.97,2147.2,2818.08-226.17
				c57.44-95.29,157.64-153.73,287.19-200.64c1875.85-2518.31,2833.35-2322.93,3128.2-3057.1"/>
			<path class="st3" d="M-2462.51,5392.82l988.23-2146.94c0,0,1194.72-2364.91,1333.99-2670.64
				c47-103.19,378.08-239.13,753.16-152.46c309.79,72.64,651.11,283.98,917,695.75c676.44,1047.57,1435.82,2161.34,2819.37-68.51
				c54.06-89.69,155.27-137.63,288.73-171.92c1810.01-2332.13,2824.55-2068.6,3152.16-2884.34"/>
			<path class="st3" d="M-2273.36,5405.4l927.11-2146.27c0,0,1114.33-2332.29,1267.53-2668.6c51.71-113.51,372.96-250.26,740-163.9
				c304.44,72.74,643.06,283.88,915.19,684.74c704.89,1038.31,1519.66,2175.49,2820.67,89.14
				c50.68-84.08,152.91-121.52,290.27-143.21C6431.58-1088.66,7503.15-756.98,7863.52-1654.29"/>
			<path class="st3" d="M-2084.21,5417.98l865.99-2145.6c0,0,1033.95-2299.67,1201.07-2666.55
				C39.26,482,350.68,344.44,709.69,430.48c299.08,72.84,635.19,283.69,913.37,673.72C2356.84,2133.02,3226.57,3293.84,4445.02,1351
				c47.3-78.47,150.55-105.42,291.82-114.49C6415.19-723.27,7543.78-323.45,7936.91-1302.34"/>
			<path class="st3" d="M-1895.05,5430.56l804.87-2144.93c0,0,953.56-2267.05,1134.61-2664.51
				c61.11-134.15,362.71-272.51,713.67-186.79c293.73,72.94,627.5,283.38,911.56,662.71
				c763.11,1019.04,1687.36,2203.78,2823.25,404.45c43.92-72.87,148.19-89.32,293.36-85.78
				C6398.79-357.89,7584.41,110.08,8010.31-950.38"/>
			<path class="st3" d="M-1705.9,5443.14l743.75-2144.26c0,0,873.18-2234.44,1068.15-2662.47
				c65.81-144.47,357.58-283.64,700.51-198.23c288.37,73.04,619.97,282.95,909.75,651.69
				c792.88,1008.94,1771.21,2217.93,2824.54,562.1c40.54-67.26,145.82-73.21,294.91-57.07
				C6382.39,7.49,7625.05,543.61,8083.7-598.42"/>
			<path class="st3" d="M-1516.74,5455.72l682.63-2143.59c0,0,792.79-2201.82,1001.69-2660.42
				c70.51-154.79,352.63-295.45,687.35-209.67c283.17,72.57,612.59,282.4,907.93,640.68
				c823.08,998.49,1855.05,2232.08,2825.84,719.75c37.17-61.66,143.46-57.11,296.45-28.35C6366,372.87,7665.68,977.14,8157.1-246.47
				"/>
			<path class="st3" d="M-1327.59,5468.3l621.51-2142.92c0,0,712.41-2169.2,935.23-2658.38c75.21-165.1,347.51-306.57,674.19-221.11
				c277.81,72.67,605.35,281.71,906.12,629.67c853.69,987.63,1938.9,2246.22,2827.13,877.41c33.79-56.05,141.1-41,297.99,0.36
				C6349.6,738.26,7706.32,1410.68,8230.49,105.49"/>
			<path class="st3" d="M-1138.43,5480.88l560.39-2142.25c0,0,632.02-2136.58,868.77-2656.33
				c79.91-175.42,342.38-317.68,661.03-232.55c272.46,72.79,598.24,280.88,904.3,618.65
				c884.69,976.34,2022.75,2260.37,2828.42,1035.06c30.41-50.45,138.74-24.9,299.53,29.08
				C6333.2,1103.64,7746.95,1844.2,8303.89,457.45"/>
			<path class="st3" d="M-949.28,5493.45l499.27-2141.58c0,0,551.63-2103.97,802.31-2654.29
				c84.61-185.74,337.25-328.78,647.87-243.99c267.1,72.91,591.23,279.9,902.49,607.64
				c916.08,964.58,2106.6,2274.52,2829.72,1192.71c27.03-44.84,136.37-8.79,301.08,57.79c1283.35-842.72,2754.13-34,3343.83-1502.33
				"/>
			<path class="st3" d="M-760.13,5506.03l438.14-2140.91c0,0,471.25-2071.35,735.85-2652.25
				c89.31-196.06,331.96-339.29,634.71-255.44c261.6,73.54,584.32,278.77,900.68,596.62
				c947.82,952.31,2190.44,2288.66,2831.01,1350.37c23.65-39.24,134.01,7.31,302.62,86.51
				c1217.52-656.54,2745.33,220.32,3367.79-1329.58"/>
			<path class="st3" d="M-570.97,5518.61l377.02-2140.24c0,0,390.86-2038.73,669.39-2650.2C569.45,521.79,802.28,377.76,1097,461.3
				c256.24,73.64,577.49,277.48,898.86,585.61c979.89,939.5,2274.29,2302.81,2832.3,1508.02c20.27-33.63,131.65,23.42,304.16,115.22
				c1151.69-470.36,2736.53,474.65,3391.75-1156.83"/>
			<path class="st3" d="M-381.82,5531.19l315.9-2139.57c0,0,310.48-2006.11,602.93-2648.16c98.71-216.7,321.71-361.55,608.39-278.32
				c250.89,73.75,570.72,276.04,897.05,574.59C3054.73,1965.88,4400.6,3356.7,4876.05,2705.42
				c16.89-28.03,129.28,39.52,305.71,143.93c1085.86-284.18,2727.73,728.98,3415.71-984.08"/>
			<path class="st3" d="M-192.66,5543.77l254.78-2138.9c0,0,230.09-1973.5,536.48-2646.11C702,531.74,915.18,386.08,1193.82,469
				c245.53,73.85,564.01,274.43,895.23,563.58c1044.93,912.18,2441.99,2331.1,2834.89,1823.33
				c13.51-22.42,126.92,55.62,307.25,172.65c1020.03-98.01,2718.93,983.3,3439.67-811.33"/>
			<path class="st3" d="M-3.51,5556.35l193.66-2138.23c0,0,149.71-1940.88,470.02-2644.07c108.11-237.34,311.46-383.81,582.07-301.2
				c240.18,73.95,557.32,272.67,893.42,552.57c1077.83,897.61,2525.83,2345.25,2836.18,1980.98
				c10.14-16.82,124.56,71.73,308.79,201.36c954.2,88.17,2710.13,1237.63,3463.63-638.58"/>
			<path class="st3" d="M185.65,5568.93l132.54-2137.56c0,0,69.32-1908.26,403.56-2642.03
				c112.81-247.66,306.34-394.93,568.91-312.64c234.82,74.05,550.66,270.74,891.61,541.55
				c1110.95,882.42,2609.68,2359.39,2837.47,2138.63c6.76-11.21,100.42,122.54,310.34,230.08
				c827.49,423.93,2701.32,1491.95,3487.59-465.83"/>
			<path class="st3" d="M374.8,5581.51l71.42-2136.89c0,0-11.07-1875.64,337.1-2639.98c117.51-257.98,301.21-406.06,555.75-324.09
				c229.47,74.15,544,268.66,889.79,530.54c1144.24,866.59,2693.53,2373.54,2838.76,2296.29c3.38-5.61,107.51,120.62,311.88,258.79
				c780.94,527.99,2692.52,1746.28,3511.55-293.08"/>
		</g>
	</g>
</g>
<path class="st4" d="M5750.5-3669.5c0,0-1652,2965-2664.32,4454.64S1476.5,2759.5,1091.5,1281.5c-355.15-1363.39-2198-928-2851-690"
	/>
<g>
	<path class="st5" d="M9706.5,282.5c0,0-3353.41,3780-5025.71,2362.5S1347.5-644.5,1046.5,863.5s-497,4276-440,5450"/>
	<path class="st5" d="M9542.06,135.02c0,0-3345.27,3905.96-4980.52,2474S1323.58-626.86,937.74,861.5s-574,4145.64-519.28,5272.68"
		/>
	<path class="st5" d="M9377.62-12.46c0,0-3337.14,4031.92-4935.33,2585.5S1299.66-609.22,828.98,859.5s-651,4015.28-598.56,5095.36"
		/>
	<path class="st5" d="M9213.18-159.94c0,0-3329,4157.88-4890.14,2697S1275.74-591.58,720.22,857.5s-728,3884.92-677.84,4918.04"/>
	<path class="st5" d="M9048.74-307.42c0,0-3320.87,4283.84-4844.95,2808.5S1251.82-573.94,611.46,855.5s-805,3754.56-757.12,4740.72
		"/>
	<path class="st5" d="M8884.3-454.9c0,0-3312.73,4409.8-4799.76,2920S1227.9-556.3,502.7,853.5s-882,3624.2-836.4,4563.4"/>
	<path class="st5" d="M8719.86-602.38c0,0-3304.59,4535.76-4754.58,3031.5S1203.98-538.66,393.94,851.5s-959,3493.84-915.68,4386.08
		"/>
	<path class="st5" d="M8555.42-749.86c0,0-3296.46,4661.72-4709.39,3143S1180.06-521.02,285.18,849.5s-1036,3363.48-994.96,4208.76"
		/>
	<path class="st5" d="M8390.98-897.34c0,0-3288.32,4787.68-4664.2,3254.5S1156.14-503.38,176.42,847.5
		s-1113,3233.12-1074.24,4031.44"/>
	<path class="st5" d="M8226.54-1044.82c0,0-3280.18,4913.64-4619.01,3366S1132.22-485.74,67.66,845.5s-1190,3102.76-1153.52,3854.12
		"/>
	<path class="st5" d="M8062.1-1192.3c0,0-3272.05,5039.6-4573.82,3477.5S1108.3-468.1-41.1,843.5s-1267,2972.4-1232.8,3676.8"/>
	<path class="st5" d="M7897.66-1339.78c0,0-3263.91,5165.56-4528.64,3589S1084.38-450.46-149.86,841.5
		s-1344,2842.04-1312.08,3499.48"/>
	<path class="st5" d="M7733.22-1487.26c0,0-3255.77,5291.52-4483.45,3700.5S1060.46-432.82-258.62,839.5
		s-1421,2711.68-1391.36,3322.16"/>
	<path class="st5" d="M7568.78-1634.74c0,0-3247.64,5417.48-4438.26,3812S1036.54-415.18-367.38,837.5
		s-1498,2581.32-1470.64,3144.84"/>
	<path class="st5" d="M7404.34-1782.22c0,0-3239.5,5543.44-4393.07,3923.5S1012.62-397.54-476.14,835.5
		s-1575,2450.96-1549.92,2967.52"/>
	<path class="st5" d="M7239.9-1929.7c0,0-3231.36,5669.4-4347.88,4035S988.7-379.9-584.9,833.5s-1652,2320.6-1629.2,2790.2"/>
	<path class="st5" d="M7075.46-2077.18c0,0-3223.23,5795.36-4302.69,4146.5S964.78-362.26-693.66,831.5
		s-1729,2190.24-1708.48,2612.88"/>
	<path class="st5" d="M6911.02-2224.66c0,0-3215.09,5921.32-4257.51,4258S940.86-344.62-802.42,829.5s-1806,2059.88-1787.76,2435.56
		"/>
	<path class="st5" d="M6746.58-2372.14c0,0-3206.96,6047.28-4212.32,4369.5S916.94-326.98-911.18,827.5
		s-1883,1929.52-1867.04,2258.24"/>
	<path class="st5" d="M6582.14-2519.62c0,0-3198.82,6173.24-4167.13,4481S893.02-309.34-1019.94,825.5
		s-1960,1799.16-1946.32,2080.92"/>
	<path class="st5" d="M6417.7-2667.1c0,0-3190.68,6299.2-4121.94,4592.5S869.1-291.7-1128.7,823.5s-2037,1668.8-2025.6,1903.6"/>
	<path class="st5" d="M6253.26-2814.58c0,0-3182.55,6425.16-4076.75,4704S845.18-274.06-1237.46,821.5
		s-2114,1538.44-2104.88,1726.28"/>
	<path class="st5" d="M6088.82-2962.06c0,0-3174.41,6551.12-4031.56,4815.5S821.26-256.42-1346.22,819.5
		s-2191,1408.08-2184.16,1548.96"/>
	<path class="st5" d="M5924.38-3109.54c0,0-3166.27,6677.08-3986.38,4927S797.34-238.78-1454.98,817.5
		s-2268,1277.72-2263.44,1371.64"/>
	<path class="st5" d="M5759.94-3257.02c0,0-3158.14,6803.04-3941.19,5038.5S773.42-221.14-1563.74,815.5
		s-2345,1147.36-2342.72,1194.32"/>
	<path class="st5" d="M5595.5-3404.5c0,0-3150,6929-3896,5150s-950-1949-3372-932s-2422,1017-2422,1017"/>
</g>
</svg>
